<svg width="653" height="170" viewBox="0 0 653 170" fill="none" xmlns="http://www.w3.org/2000/svg">
<g clip-path="url(#clip0_461_905)">
<path fill-rule="evenodd" clip-rule="evenodd" d="M484.756 70.4932C492.498 72.9037 500.157 75.7379 507.834 78.4132C508.698 78.7142 508.696 78.7647 509.468 78.2215C511.569 76.7439 513.71 75.3405 515.876 73.9959C522.408 69.9406 529.123 66.6958 536.316 64.6314C541.414 63.1681 546.597 62.0077 551.797 61.1556C551.268 63.0552 550.242 65.0356 548.974 66.3737C547.991 67.4107 546.651 67.9775 545.436 68.5337C541.825 70.1873 538.044 71.3438 534.495 73.1819C530.875 75.0568 528.588 78.9545 527.901 83.4767C527.772 84.3225 527.78 84.4513 528.375 84.8781C529.041 85.3568 529.851 85.637 530.586 85.9292C536.486 88.2754 542.708 89.7202 548.809 91.1442C552.048 91.9003 555.299 92.6028 558.566 93.1691C560.594 93.5207 562.736 93.9922 564.796 93.8519C573.622 93.2507 578.853 80.986 581.437 72.6903C589.411 77.7337 598.56 80.9571 607.492 82.5124C618.323 84.3983 631.966 84.5019 640.527 75.1837C644.605 70.7456 647.109 64.7363 648.948 58.6838C642.948 58.0832 636.974 57.0324 631.023 55.9696C629.984 55.7839 628.946 55.595 627.907 55.4027C627.49 55.3253 626.848 55.0515 626.421 55.1243C625.772 55.2341 624.935 56.0553 624.361 56.4192C619.958 59.2092 615.405 61.7677 610.682 63.7311C608.15 64.783 605.522 65.7134 602.839 66.0249C599.96 66.3594 597.012 65.672 594.232 64.8513C587.257 62.7927 579.961 59.3094 574.144 54.2896C572.729 56.6452 570.175 58.2408 567.74 57.1041C565.072 55.8592 563.589 52.5943 562.16 49.9092C561.64 48.9315 560.658 48.9246 559.69 48.6362C556.986 47.8307 554.248 47.1741 551.497 46.6292C542.463 44.8399 533.173 44.233 524.055 45.4672C515.158 46.6718 506.398 50.0226 498.553 55.0592C495.14 57.2502 491.817 59.789 488.982 62.9256C487.191 64.9065 485.098 67.4991 484.756 70.4932Z" fill="#0000EE"/>
<path fill-rule="evenodd" clip-rule="evenodd" d="M511.634 2.36467C514.426 3.45608 516.946 5.05968 519.407 6.92694C520.606 7.83681 521.805 8.90158 523.131 9.54588C524.307 10.1174 525.592 10.3775 526.8 10.8471C532.214 12.9514 538.089 13.3746 543.594 11.3516C549.206 9.28936 553.969 4.86057 559.773 3.47146C565.433 2.11668 571.189 2.41631 576.624 4.86964C579.264 6.06128 581.491 8.06366 583.743 10.0136C585.902 11.8822 588.167 13.7253 589.839 16.2198C591.48 18.6696 592.428 21.7181 593.151 24.6825C593.568 26.3921 593.76 28.1575 593.73 29.9357C593.709 31.1798 593.146 32.3816 593.477 33.5843C593.942 35.2708 594.619 36.5105 594.445 38.3882C594.304 39.9004 593.715 41.2035 592.795 42.265C591.85 43.3539 590.721 44.1018 589.462 44.5741C588.51 44.9314 588.209 44.8411 587.656 43.8722C586.107 45.5096 585 47.5787 583.059 48.6602C582.096 49.1974 581.109 49.4561 580.047 49.5349C579.243 49.5945 578.505 49.6217 577.826 50.1927C577.113 50.7922 574.507 53.4663 575.504 54.5182C576.085 55.1317 577.442 55.2534 578.182 55.606C579.217 56.0993 580.213 56.7043 581.152 57.4126C584.589 60.0038 588.01 61.6203 591.984 62.7801C596.11 63.9841 600.27 64.6355 604.527 64.6534C608.394 64.6699 612.445 64.3268 616.031 62.4991C617.752 61.6219 619.413 60.4586 620.821 59.0019C622.226 57.5485 623.088 55.5275 624.532 54.1749C625.466 53.2994 624.602 51.9514 624.314 50.7496C623.726 48.3048 623.277 45.5216 623.099 42.9936C622.926 40.5378 622.636 38.0891 622.263 35.6592C621.867 33.0831 621.041 30.6852 620.459 28.1693C620.029 26.3141 619.596 24.1368 620.095 22.2423C620.342 21.3025 620.89 20.3094 621.669 19.861C622.366 19.4597 622.795 19.8431 623.42 19.8C625.251 19.6742 626.666 20.5462 628.048 21.9729C628.795 22.7438 629.66 23.4189 630.371 24.2263C630.925 24.8541 631.056 25.8673 631.646 26.4239C632.614 23.5383 633.629 19.87 636.914 21.5203C639.512 22.8262 639.846 27.7329 641.107 30.2908C641.816 29.6097 641.895 28.2676 642.171 27.3182C642.456 26.3355 642.937 25.2977 643.614 24.6026C645.094 23.0844 646.9 23.6941 647.919 25.5127C648.463 26.4849 648.139 27.601 648.68 28.5612C649.216 29.5133 649.048 30.6259 649.267 31.7349C649.545 33.1405 649.881 34.5255 650.104 35.947C650.208 36.6042 650.358 37.3452 650.332 38.0197C650.321 38.2992 650.127 38.7801 650.187 39.0561C650.265 39.4173 650.632 39.7422 650.767 40.0995C650.948 40.5796 650.881 40.9286 650.901 41.4238C650.939 42.3153 651.143 43.0466 651.362 43.9271C651.914 46.1448 651.774 48.9519 650.956 51.052C650.532 52.1407 650.235 52.9324 650.109 54.0974C650.028 54.8497 649.542 55.5349 649.571 56.3434C649.612 57.4686 652.19 59.2038 650.155 59.9502C649.305 60.2619 649.123 60.0991 648.89 61.2328C648.66 62.3582 648.399 63.4532 648.021 64.5254C647.219 66.8008 646.033 68.838 644.915 70.9102C643.704 73.1531 642.432 75.3206 640.643 76.9931C638.984 78.544 637.082 79.8057 635.188 80.922C631.198 83.274 626.759 84.5871 622.279 84.4599C617.501 84.324 612.656 84.851 607.922 83.9038C603.075 82.9338 598.345 81.3282 593.518 80.2514C591.35 79.7675 589.328 79.2399 587.355 78.0452C585.353 76.8335 583.356 75.596 581.525 74.0509C580.263 77.5814 579.584 81.2615 577.775 84.5093C576.196 87.3439 574.291 90.009 571.96 92.0415C569.684 94.0274 566.709 95.5127 563.842 95.6404C562.967 95.6791 561.622 95.2309 560.994 96.0004C560.68 96.3855 560.648 97.1506 560.523 97.645C560.311 98.4864 560.004 99.3073 559.833 100.162C559.574 101.459 560.617 101.479 561.531 102.005C562.756 102.711 563.952 103.482 565.137 104.276C566.347 105.087 567.5 106.021 568.712 106.819C569.753 107.505 570.828 108.034 571.829 108.811C574.197 110.648 576.791 111.873 579.334 113.327C582.055 114.883 584.702 116.62 587.377 118.283C592.675 121.576 597.989 124.994 602.991 128.876C605.326 130.688 607.571 132.575 609.965 134.289C612.199 135.887 614.748 137.759 616.17 140.382C617.278 142.427 618.871 143.396 620.705 144.511C621.785 145.168 622.453 145.292 623.331 144.217C624.192 143.162 625.024 142.112 625.933 141.106C629.658 136.978 632.845 132.46 635.952 127.708C638.259 124.179 641.421 119.942 645.657 120.716C646.927 120.948 647.77 121.637 648.71 122.608C649.347 123.267 650.498 123.698 650.923 124.551C651.169 125.044 651.271 125.675 651.518 126.192C651.777 126.733 652.099 127.26 652.271 127.851C652.564 128.851 651.933 130.44 652.562 131.254C653.022 131.851 652.594 133.256 652.469 133.93C652.237 135.177 652.039 136.442 651.673 137.646C651.383 138.593 651.099 139.892 650.491 140.632C649.948 141.292 649.311 141.227 649.452 142.37C648.865 142.141 648.359 143.784 648.193 144.199C647.748 145.312 647.261 146.227 646.544 147.149C644.73 149.482 642.653 151.06 640.301 152.543C639.443 153.084 637.663 153.836 637.464 155.086C637.273 156.287 637.859 157.262 637.447 158.545C636.589 161.213 634.66 164.026 633.086 166.178C631.67 168.115 630.297 169.409 628.026 168.954C626.015 168.551 624.025 167.353 622.351 166.024C620.335 164.423 618.199 163.219 616.022 161.949C614.95 161.324 613.878 160.746 612.949 159.848C612.086 159.013 611.337 158.073 610.337 157.453C609.624 157.011 608.693 156.698 608.396 155.714C608.072 154.642 608.664 153.973 609.167 153.204C609.505 152.688 609.692 152.608 609.4 152.194C609.167 151.863 608.528 151.583 608.206 151.381C607.429 150.894 606.652 150.468 605.821 151.003C604.894 151.6 604.26 152.835 603.566 153.732C602.733 154.806 601.798 155.786 600.886 156.766C599.075 158.71 597.091 160.452 595.323 162.442C594.918 162.896 594.121 164.05 593.454 163.832C592.961 163.671 593.22 163.329 592.966 163.066C592.693 162.783 592.461 162.779 592.111 162.473C591.24 161.712 590.974 160.253 590.061 159.465C589.123 158.655 587.964 158.072 586.948 157.406C582.309 154.363 577.791 151.081 573.551 147.32C571.426 145.434 569.418 143.387 567.359 141.406C566.389 140.473 565.406 139.452 564.328 138.694C563.345 138.003 562.253 137.52 561.251 136.857C559.105 135.437 556.81 134.35 554.686 132.884C553.687 132.195 552.947 131.268 552.018 130.501C551.204 129.829 550.527 129.43 549.922 128.452C549.634 129.191 548.845 128.226 548.56 128C548.335 127.821 548.048 127.695 547.84 127.491C547.631 127.286 547.504 126.828 547.345 126.686C546.993 126.369 546.584 126.441 546.112 126.243C545.48 125.979 544.647 125.274 544.162 124.736C543.826 124.364 544.374 124.657 543.806 124.2C543.542 123.988 543.089 123.93 542.792 123.705C542.087 123.171 541.44 122.486 540.767 121.896C539.548 120.829 537.971 119.858 537.279 118.194C533.561 121.758 529.972 125.625 525.703 128.292C521.58 130.869 516.811 132.038 512.408 133.816C507.878 135.644 503.303 137.482 498.697 139.032C496.458 139.786 494.149 140.327 491.861 140.836C489.513 141.358 487.198 141.203 484.842 141.498C483.684 141.643 482.525 141.596 481.367 141.727C480.301 141.847 479.267 142.164 478.209 142.328C477.275 142.473 476.223 142.351 475.326 142.647C474.667 142.864 473.798 143.635 473.315 142.632C472.962 143.25 472.85 142.958 472.39 142.919C471.899 142.877 471.751 142.901 471.271 143.009C470.49 143.183 469.628 143.25 468.964 142.534C468.661 143.817 465.721 142.65 465.37 141.801C464.975 143.16 461.404 141.988 461.352 140.712C461.308 139.632 461.923 138.079 462.176 137.065C462.59 135.409 463.103 133.79 463.639 132.183C464.205 130.485 464.787 128.791 465.37 127.1C465.626 126.357 465.868 125.602 466.16 124.877C466.304 124.521 466.677 123.991 466.671 123.58C466.653 122.38 464.81 122.294 464.031 121.995C463.442 121.768 462.844 121.529 462.284 121.215C461.878 120.987 461.391 120.464 460.941 120.391C459.911 120.225 460.144 121.586 460.032 122.422C459.889 123.498 459.381 124.052 458.405 124.06C457.264 124.069 454.012 121.779 453.399 123.525C453.111 124.342 453.189 125.91 453.084 126.789C452.911 128.229 452.979 129.661 453.148 131.097C453.425 133.462 454.341 136.453 453.31 138.72C451.253 143.246 444.12 140.518 441.843 137.669C438.49 133.473 438.588 127.184 440.195 122.104C440.976 119.633 442.108 116.985 443.587 114.976C444.244 114.083 445.495 113.221 445.711 111.994C445.892 110.977 445.214 110.039 445.357 108.997C445.526 107.759 446.423 107.008 447.192 106.257C447.992 105.476 448.771 104.624 449.683 104.019C451.793 102.619 454.186 103.464 456.284 104.492C458.578 105.616 460.776 107.124 462.826 108.765C463.84 109.577 464.7 110.308 465.903 110.701C466.826 111.002 467.757 111.298 468.684 111.581C469.558 111.848 470.295 112.047 470.909 111.164C471.584 110.193 471.808 109.801 472.977 109.759C474.222 109.715 475.468 109.796 476.711 109.851C476.974 109.863 477.571 109.767 477.778 110.023C477.963 110.251 477.695 110.726 477.867 110.87C478.139 111.098 479.681 108.554 479.813 110.613C479.897 109.614 480.795 110.098 481.296 110.229C481.478 110.277 481.66 110.334 481.841 110.38C482.036 110.304 482.199 110.363 482.328 110.555C482.534 110.607 482.673 110.515 482.746 110.281C484.922 110.244 487.117 110.404 489.299 110.391C491.822 110.375 494.36 110.346 496.859 109.92C497.785 109.761 498.711 109.543 499.639 109.411C500.064 109.35 500.42 109.403 500.835 109.435C500.986 109.469 501.124 109.542 501.247 109.655C501.31 109.509 501.404 109.399 501.53 109.324C503.117 108.781 504.75 108.413 506.363 107.94C507.492 107.608 508.439 107.352 509.563 107.259L509.776 107.243L510.227 107.398C510.293 107.21 510.401 107.064 510.55 106.958C510.916 106.783 511.228 106.715 511.622 106.668C513.195 106.481 514.737 106.5 516.223 106.232C517.006 106.091 519.865 105.573 520.392 106.479C520.797 105.376 523.709 106.878 524.561 106.226C523.238 104.119 522.661 101.864 522.287 99.3167C521.879 96.5412 521.622 93.6215 522.226 90.857C522.782 88.3098 523.994 85.6952 525.65 83.9032C527.251 82.17 527.627 80.0968 528.696 77.9579C530.922 73.5011 534.59 70.7783 538.676 69.1341C540.901 68.2388 543.164 67.4937 545.408 66.6709C547.231 66.0027 548.758 65.0464 549.68 63.0023C541.917 63.0023 534.489 65.8132 527.381 69.2228C523.846 70.9187 520.326 72.6835 516.833 74.4986C515.056 75.4222 513.298 76.41 511.639 77.6028L511.181 77.9324C510.647 78.3185 510.116 78.7134 509.617 79.1586C509.498 79.2649 508.85 79.7065 508.812 79.854C508.515 81.0009 510.148 82.8453 510.572 83.8291C511.149 85.1688 511.714 86.7353 511.785 88.2455C511.87 90.0518 510.883 90.9556 509.363 90.5849C507.504 90.1314 506.096 88.3224 504.62 87.0646C504.29 88.2189 504.716 89.5467 504.946 90.6717C505.262 92.2146 505.577 93.7808 505.801 95.3462C506.119 97.559 505.893 100.056 504.008 101.216C499.203 104.17 496.753 96.375 495.777 92.4812C495.118 93.0365 495.195 95.0713 495.073 95.9222C494.84 97.5593 494.573 99.3169 493.95 100.82C493.473 101.972 492.662 103.316 491.469 103.44C490.175 103.575 489.132 102.276 488.553 101.077C487.551 99.0061 487.315 96.6972 487.236 94.376C487.218 93.8646 487.345 89.1296 486.902 88.9947C485.601 91.7177 484.874 94.7456 483.345 97.3426C482.005 99.6185 479.988 101.162 478.176 98.5307C475.37 94.4556 476.268 88.5666 477.418 83.9818C478.086 81.3156 478.996 78.7705 480.223 76.3864C480.731 75.3975 481.347 74.6554 481.979 73.7837C482.5 73.0647 482.7 72.7272 482.475 71.8986C482.344 71.4155 482.221 71.3979 482.337 70.8638C482.421 70.4806 482.673 70.0091 482.817 69.6531C483.228 68.6362 483.66 67.6326 484.163 66.6731C485.24 64.6233 486.706 62.9181 488.247 61.3369L488.401 61.1785L488.394 61.1865C488.295 61.2932 489.016 60.6521 489.001 60.6506L488.997 60.6523L489.016 60.6391C489.282 60.4362 489.383 59.7691 489.685 60.3645L489.707 60.4091C489.755 59.5331 490.386 59.0351 490.928 58.5444C491.13 58.3615 491.332 58.1074 491.577 57.9981C491.748 57.922 492.144 57.9967 492.268 57.8905C492.508 57.6842 492.625 57.2755 492.854 57.0325C493.082 56.7894 493.398 56.6757 493.658 56.4904C494.296 56.0358 494.882 55.4794 495.504 54.995C496.825 53.9656 498.205 53.0382 499.619 52.1931C502.593 50.4148 505.75 48.984 508.909 47.722C511.694 46.6098 514.579 45.5793 517.439 44.7691C520.374 43.9373 523.459 44.1443 526.457 43.8024C532.567 43.1051 539.016 43.2457 545.123 43.9417C548.116 44.2828 551.093 44.8161 554.045 45.4829C556.908 46.1294 559.885 46.8652 562.429 48.613C562.97 48.9854 563.95 50.1798 564.585 50.1358C565.12 50.099 565.584 48.9469 565.835 48.4929C566.432 47.4147 567.183 46.4238 567.69 45.2877C568.315 43.8884 568.635 42.3155 569.105 40.8432C566.926 41.1939 564.637 41.4213 562.546 40.4466C560.652 39.5639 559.376 37.8 557.961 36.1711C556.471 34.4554 554.875 33.2929 552.743 33.1353C550.325 32.9562 548.144 33.9693 545.92 34.9135C541.22 36.9085 536.522 39.1004 531.685 40.6051C529.322 41.3406 526.891 41.9212 524.442 42.0519C523.195 42.1181 521.933 42.0527 520.7 42.3216C520.188 42.4328 520.035 42.5259 519.631 42.2623C519.686 42.2982 519.116 41.1925 519.003 41.6229C518.894 42.0376 519.072 42.3617 518.761 42.6742C518.396 43.0411 517.602 42.8626 517.179 42.8203C516.545 42.7571 516.039 42.5059 515.429 42.3386C514.485 42.0802 513.427 42.2504 512.465 42.1093C512.018 42.0436 511.694 41.9121 511.292 41.7676C510.87 41.6163 511.142 41.6355 510.708 41.571C510.323 41.5139 510.106 41.5729 509.64 41.3963C509.224 41.2384 508.84 41.1297 508.414 41.0138C508.024 40.908 507.71 40.7177 507.347 40.5938C507.803 40.7496 506.762 40.2681 506.808 40.3962L506.812 40.4044L506.808 40.4C506.695 40.2515 506.564 39.9528 506.34 39.9064L506.294 39.9006C507.03 41.2195 503.796 39.8259 503.581 39.7499C501.794 39.1149 499.963 37.6736 498.095 37.541C496.271 37.4113 494.502 38.8622 493.034 39.9383C491.261 41.2379 489.496 42.5482 487.73 43.8609C483.826 46.7625 479.599 49.3578 475.218 51.1212C473.087 51.9789 470.903 52.6669 468.742 53.4098C467.767 53.7445 466.703 53.8821 465.772 54.3625C465.142 54.6871 464.235 55.6585 463.599 54.798C463.343 55.5508 462.099 55.5124 461.571 55.5357C461.49 55.5393 461.62 55.7197 461.435 55.7046C461.162 55.6821 461.088 55.3723 460.873 55.3075C460.436 55.1762 460.39 55.3729 459.957 55.5681C459.394 55.8216 459.502 55.6022 459.004 55.5423C458.719 55.508 458.417 55.6906 458.132 55.701C458.016 55.7054 457.864 55.48 457.696 55.4833C457.534 55.4868 457.156 55.7118 456.943 55.7491C456.408 55.843 455.778 55.7807 455.239 55.7527C454.467 55.7123 446.737 54.9076 447.292 53.0209C446.361 54.0227 444.204 52.3851 443.234 51.8649C442.873 51.6713 442.85 51.4832 442.646 51.2648C442.703 51.0026 442.606 50.8856 442.358 50.9136C442.305 50.9064 442.251 50.8996 442.198 50.8924C441.772 50.6389 441.621 50.6447 441.281 50.2001C440.829 49.6066 439.996 49.0699 439.762 48.2966C439.699 48.0889 439.766 47.7305 439.702 47.5674C439.62 47.3581 439.404 47.3823 439.355 47.2126C439.337 47.1533 439.42 46.7641 439.414 46.7578C439.023 46.3755 438.472 46.5567 438.018 46.0978C436.766 44.8287 436.01 42.2831 435.65 40.4755C434.707 35.7476 434.385 30.9936 436.215 26.5217C437.104 24.3474 438.192 22.2794 439.395 20.3232C439.727 19.7821 440.076 19.0678 440.5 18.6111C440.69 18.4059 440.94 18.3639 441.033 18.2411C441.529 17.5861 441.786 16.7438 442.45 16.1064C443.19 15.3965 443.919 14.6668 444.737 14.0796C445.487 13.5405 446.42 13.1925 447.108 12.6883C447.297 12.5499 447.232 12.3315 447.437 12.167C447.654 11.9926 447.935 11.9792 448.181 11.8943C448.473 11.7941 448.835 11.6092 449.138 11.5787C449.703 11.5213 449.893 11.7106 450.32 12.1796C450.32 10.3745 453.167 10.1232 454.319 10.1199C454.85 10.1182 457.521 9.84001 457.469 10.7903C458.078 9.85155 459.927 10.5499 460.732 10.8315C461.697 11.169 462.308 11.9948 462.927 12.8769C463.042 12.5974 463.157 12.3175 463.272 12.0379C463.448 12.1813 464.042 12.4197 463.85 12.7979C464.546 12.0813 464.154 12.6715 464.75 12.7989C465.011 12.855 465.237 12.7421 465.512 12.7039C465.535 13.1285 465.377 13.2661 465.152 13.5622C465.692 13.574 467.766 13.3224 466.231 14.1142C466.436 14.5426 467.409 14.3921 467.752 14.4498C467.933 14.4803 468.385 14.4913 468.493 14.6462C468.564 14.748 468.439 15.0298 468.455 15.0548C468.601 15.2863 468.297 15.4052 468.597 15.4723C468.671 15.4887 468.905 15.2149 468.958 15.216C469.347 15.2232 469.074 15.1328 469.487 15.2023C469.633 15.2267 469.912 15.4206 470.099 15.4654C472.918 16.1391 476.365 13.6047 478.413 11.6427C480.861 9.29843 482.992 6.79264 485.934 5.27088C488.781 3.7991 491.953 2.63849 494.978 1.79672C500.573 0.240083 506.129 0.212895 511.634 2.36467ZM582.855 152.372C582.946 152.428 583.036 152.484 583.127 152.54C583.256 152.464 583.385 152.388 583.514 152.312C583.144 152.107 583.118 152.017 582.855 152.372ZM612.901 143.035C612.223 143.535 611.641 144.663 611.047 145.336C610.214 146.282 609.342 147.18 608.472 148.079C609.476 148.485 610.93 150.129 612.016 149.385C612.553 149.016 612.893 147.931 613.233 147.356C613.759 146.465 614.374 145.628 614.993 144.824C615.631 143.995 613.612 142.511 612.901 143.035ZM549.319 125.97C549.588 126.102 550.177 126.859 549.904 127.124C549.627 126.751 549.256 126.481 549.319 125.97ZM463 113.983C462.509 114.479 461.955 115.513 461.613 116.164C461.228 116.897 461.215 117.267 461.803 117.756C462.939 118.702 464.59 118.98 465.908 119.421C466.612 119.657 467.482 120.25 468.079 119.501C468.671 118.759 468.673 117.378 468.939 116.458C469.155 115.713 469.385 114.975 469.609 114.234C468.367 114.379 467.118 114.39 465.896 114.065C465.01 113.83 463.784 113.192 463 113.983ZM484.457 74.3352C483.454 75.9256 482.559 77.6102 481.77 79.3572C480.465 82.2488 479.45 85.319 478.807 88.502C478.351 90.7571 477.685 93.9275 478.726 96.0908C480.992 100.804 485.593 87.1991 486.295 85.7762C486.713 84.929 487.362 84.0202 488.08 85.1094C488.67 86.0034 488.478 87.4362 488.505 88.4888C488.586 91.6175 488.212 95.3644 489.284 98.3082C489.636 99.2744 490.567 100.67 491.619 100.231C492.561 99.8371 493.032 97.9418 493.324 96.9655C494.245 93.8767 494.899 90.1012 494.929 86.8328C494.935 86.1761 494.431 81.8352 495.732 82.7956C496.583 83.4234 496.548 86.4711 496.63 87.4683C496.954 91.3643 497.613 97.9806 501.753 98.6361C502.665 98.7806 503.697 98.5287 504.23 97.5719C504.894 96.383 504.227 94.7843 503.994 93.5347C503.594 91.3805 503.14 89.1598 503.1 86.9421C503.075 85.5826 503.19 83.3226 504.825 83.8472C506.796 84.4791 507.63 87.4894 509.844 87.5902C509.846 86.9844 509.559 86.4906 509.315 85.9844C508.528 84.3484 507.093 82.9475 506.608 81.1376C506.448 80.5439 506.614 79.651 506.299 79.1561C506.001 78.689 505.33 78.5692 504.881 78.4635C501.891 77.7585 498.952 76.8041 495.976 75.9915C492.795 75.1231 489.846 74.1844 486.867 72.6552C485.525 71.9661 485.218 73.1281 484.457 74.3352ZM555.783 98.7372C556.222 98.9805 556.657 99.234 557.101 99.4641C557.487 99.6649 557.639 99.5051 557.793 99.0838C557.514 99.0165 555.945 98.3656 555.783 98.7372ZM536.946 45.9605C531.258 46.1552 525.696 46.2401 520.09 47.5009C517.408 48.1041 514.78 48.8027 512.15 49.659C511.039 50.0207 510.06 50.3978 509.091 51.1193C508.731 51.3873 507.778 52.2291 507.632 51.267C507.153 51.8029 506.219 53.4386 505.453 52.5298C505.319 53.1868 504.9 53.1664 504.492 53.3897C504.348 53.4683 504.27 53.7355 504.085 53.8324C504.038 53.8566 504.023 53.4812 503.955 53.4748C503.711 53.4523 503.519 54.0521 503.379 54.2051C503.041 54.5717 502.725 54.7395 502.277 54.8727C502.083 54.9485 501.884 54.9972 501.68 55.0186C501.44 55.1337 501.296 55.051 501.248 54.7706C500.917 54.7769 500.674 54.9175 500.327 55.101C501.076 55.3015 499.816 55.522 499.648 55.5442C499.628 56.1979 500.106 55.7837 500.415 55.9191C500.272 56.7395 498.97 57.3656 498.434 57.768C498.343 57.5406 498.251 57.3132 498.159 57.086C498.011 57.2533 497.896 57.4458 497.814 57.6636C497.759 57.9273 497.599 58.0184 497.333 57.9371C497.085 58.1673 497.048 58.0607 496.895 58.3848C496.737 58.7207 497.204 59.3743 496.526 59.0928C496.526 60.2084 495.638 59.5322 495.794 59.2428C495.123 59.167 494.836 60.6017 494.911 61.1614C494.59 60.7898 494.393 60.8368 494.071 61.127L494.042 61.153L494.059 61.1389C494.307 60.943 494.052 61.7444 494.075 61.7351L494.077 61.7318C493.396 62.7806 493.46 61.6063 493.671 60.9875C493.209 61.2037 493.121 61.7887 492.751 62.1188C492.421 62.4126 492.328 62.2761 492.044 62.3201C491.607 62.3876 491.739 61.9677 491.547 62.5302C491.466 62.7686 491.589 63.1956 491.589 63.4557C491.778 63.153 491.707 62.6744 492.049 62.5011C491.947 63.378 490.486 66.3907 489.872 64.6152C489.274 65.0999 489.933 65.6311 489.54 66.2803C489.249 65.9519 489.179 65.4292 489.212 64.9816C489.028 65.2661 489.034 65.6256 488.891 65.9134C488.741 66.2136 488.585 66.2378 488.512 66.564C488.403 67.0595 488.777 66.8167 488.579 67.3424C488.48 67.6063 488.016 67.8373 487.834 67.9858C487.195 68.506 486.548 69.1085 487.169 69.9731C488.14 71.3262 490.701 71.4811 492.076 71.7085C495.008 72.1935 497.866 72.999 500.755 73.7452C502.495 74.1948 504.199 74.6952 505.906 75.2947C507.131 75.7248 508.823 75.9923 509.47 77.4734C512.886 73.6609 517.44 71.6717 521.656 69.3851C526.221 66.9087 530.937 64.6092 535.773 62.9542C540.062 61.4865 544.46 60.9296 548.891 60.4237C550.058 60.2902 551.858 59.9489 552.899 60.7862C553.541 61.3031 553.571 62.0858 553.079 62.7773C552.813 63.152 552.525 63.0547 552.362 63.7226C552.236 64.239 552.306 64.63 552.421 65.1411C552.126 64.8709 551.597 65.0319 551.445 64.5553L551.431 64.5019L551.417 64.5586C551.215 65.4889 552.624 65.6175 552.192 66.7332L552.164 66.8013C552.014 67.1421 552.014 66.0488 551.882 66.0409C551.525 66.0192 551.232 66.9941 551.085 67.2644C551.75 67.2644 551.497 67.829 551.14 68.1141C550.885 68.3176 550.456 68.3766 550.16 68.5447C549.57 68.8809 549.051 69.3736 548.445 69.6941C547.782 70.0453 547.199 70.067 546.541 70.2755C546.439 70.3076 546.035 70.4845 545.994 70.4886C545.938 70.4944 545.925 70.6937 545.878 70.7014C545.457 70.7709 545.139 70.3147 544.731 70.5007C544.576 70.5721 544.656 71.0167 544.521 71.1175C544.372 71.2287 543.949 71.0868 543.768 71.0749C543.333 71.0458 543.266 70.9788 542.922 71.2142C542.329 71.6185 542.027 72.165 541.228 72.2641C540.603 72.3418 540.2 72.204 539.606 72.4775C539.004 72.7541 538.434 72.8153 537.848 73.0007C537.773 73.0243 537.754 73.3212 537.693 73.3418C537.499 73.4088 537.267 73.3577 537.082 73.4242C536.656 73.5772 536.31 73.7134 535.915 73.9877C534.177 75.1937 532.265 77.0038 530.902 78.7417C530.28 79.5351 528.545 81.5337 529.111 82.6822C529.474 83.419 530.727 83.7772 531.352 84.0883C532.284 84.5527 533.248 84.8908 534.19 85.3209C535.362 85.8559 536.425 86.6869 537.62 87.1527C538.774 87.6023 540.008 87.691 541.2 87.9311C546.356 88.9692 551.407 90.6387 556.566 91.6741C559.395 92.242 562.283 92.9198 565.157 92.3846C567.689 91.9127 570.115 90.6049 572.137 88.7778C575.818 85.453 578.383 80.7323 579.673 75.5392C579.939 74.4664 579.995 71.783 580.855 71.1266C581.571 70.5801 581.947 71.7846 582.411 72.2606C583.166 73.0337 584.272 73.3327 585.181 73.7738C587.429 74.8655 589.472 76.0179 591.848 76.7564C594.257 77.5047 596.7 78.0916 599.135 78.7088C604.072 79.9597 608.785 81.1429 613.86 81.1621C618.881 81.1808 623.922 81.4013 628.887 80.3214C633.231 79.3769 637.6 76.7967 640.847 73.2935C642.487 71.5245 643.752 69.2904 645.041 67.1787C645.733 66.0461 646.376 64.872 646.916 63.6309C647.313 62.7188 647.995 61.3981 648.065 60.3638C648.127 59.4397 647.665 59.571 646.874 59.4765C645.657 59.3315 644.436 59.2395 643.219 59.0934C640.764 58.7995 638.317 58.4246 635.864 58.1201C633.36 57.8092 630.872 57.3876 628.44 56.6131C627.712 56.3816 627.175 56.0897 626.661 56.9147C626.33 57.4458 626.336 58.6578 625.645 57.768C624.317 59.7259 622.375 60.8983 620.56 62.127C618.597 63.4565 616.689 64.9195 614.607 65.9931C610.123 68.3066 605.182 68.1231 600.423 67.3819C595.588 66.6286 590.688 65.6569 586.144 63.5087C584.06 62.5236 582.27 61.0246 580.401 59.5943C579.521 58.9206 578.608 58.3664 577.673 57.805C576.619 57.1723 575.975 56.2341 575.023 55.5028C574.38 57.944 571.91 58.7833 569.959 58.8923C567.524 59.0285 565.555 57.6707 564.077 55.4654C562.851 53.6347 562.612 50.8963 560.714 49.8941C558.548 48.7511 556.01 48.2968 553.692 47.7651C548.248 46.5169 542.493 45.7702 536.946 45.9605ZM565.823 64.7295C566.435 65.0491 568.216 67.4398 566.803 67.4747C565.905 67.497 565.378 66.1823 564.386 66.3814C563.941 66.4709 563.277 66.65 563.167 67.0507C562.895 68.0484 564.152 68.6911 564.696 68.9682C565.533 69.395 566.222 69.8242 566.679 70.8006C567.381 72.3006 567.565 74.7276 565.923 75.3986C564.702 75.8973 563.177 75.5103 561.973 75.1182C560.957 74.7875 560.182 73.5618 560.649 72.3438C560.782 71.9988 561.136 71.3905 561.549 71.6185C561.878 71.7997 561.718 72.143 561.818 72.4503C562.222 73.6818 565.239 75.4373 565.933 73.5761C566.78 71.3065 563.56 70.6229 562.576 69.8641C561.306 68.8833 561.272 67.2056 562.242 65.9236C563.092 64.8 564.588 64.0852 565.823 64.7295ZM571.144 72.4209C571.093 72.9556 571.03 73.5098 570.95 74.0396C570.882 74.5002 570.885 74.9841 570.432 75.1505C570.133 75.2604 569.841 74.8899 569.554 75.136C569.235 75.409 569.387 73.4236 569.402 73.3121C569.496 72.5717 569.668 71.0683 570.278 70.6091C571.309 69.8319 571.205 71.7689 571.144 72.4209ZM571.078 69.3179C569.983 70.1273 569.699 67.8318 570.135 67.0854C571.216 65.2321 572.804 68.0428 571.078 69.3179ZM548.835 68.1899C549.148 68.4612 549.044 68.3118 549.044 69.0341C548.68 69.0528 548.736 68.4708 548.835 68.1899ZM550.072 67.5651C549.966 67.8518 550.44 68.1959 550.593 68.2407C550.602 68.1481 550.371 66.7519 550.072 67.5651ZM490.668 63.3714C490.377 63.864 490.541 64.1659 491.004 63.9721L491.042 63.9553L490.668 63.3714ZM496.518 58.6355L496.241 58.7723C496.11 58.9181 495.98 59.0637 495.849 59.2093C496.23 59.1228 496.495 59.1895 496.518 58.6355ZM498.053 57.9434C497.862 57.4892 497.207 58.3902 497.192 58.6012C497.345 58.4954 498.275 58.4724 498.053 57.9434ZM498.668 56.3382C498.509 56.5999 498.542 56.8098 498.766 56.9677C498.952 56.6774 499.093 56.3602 499.19 56.0155C498.941 55.8049 498.757 56.0899 498.668 56.3382ZM624.193 23.9107C623.713 24.1623 623.964 25.0285 624.011 25.4979C624.234 27.7334 624.588 29.9467 624.808 32.1817C625.116 35.3252 625.159 38.5066 625.665 41.6221C626.126 44.4632 626.903 47.2222 627.313 50.0765C627.588 51.986 627.064 54.1925 629.015 54.7717C630.769 55.2927 632.769 55.321 634.568 55.55C636.885 55.845 639.206 55.99 641.533 56.1215C642.634 56.1836 643.77 56.1998 644.861 56.3948C645.503 56.5096 646.303 57.007 646.797 56.3127C647.278 55.6376 647.279 53.9195 647.429 53.0577C647.627 51.9199 647.805 50.776 647.902 49.6195C648.122 47.0011 647.799 44.4083 647.502 41.8157C647.182 39.021 646.936 36.2145 646.605 33.4225C646.392 31.6228 646.416 28.7166 645.356 27.2641C644.388 30.6363 644.126 34.2168 644.078 37.7527C644.067 38.5118 643.642 42.8744 642.511 40.7476C642.197 40.1561 642.191 39.8183 641.703 39.3181C641.199 38.8027 641.023 38.3904 640.853 37.6099C640.544 36.1961 640.494 34.9528 639.827 33.6815C638.469 31.0939 637.918 27.8902 635.895 25.8013C635.875 28.2294 635.574 30.8555 635.961 33.2539C636.204 34.7611 637.201 36.9305 636.379 38.4215C635.97 39.1652 635.733 38.9433 635.251 38.5698C634.942 38.3303 634.989 38.2188 634.601 37.979C634.231 37.7505 633.94 37.7612 633.59 37.4421C632.35 36.3128 632.252 34.3505 631.847 32.7258C630.952 29.139 627.86 26.9238 625.492 24.7053C625.234 24.4639 624.589 23.7034 624.193 23.9107ZM577.465 31.1774C575.649 32.0238 573.777 32.3462 571.848 31.8681C571.85 32.363 572.461 33.1671 571.989 33.4516C571.876 33.5195 571.234 33.1946 571.108 33.1567C570.413 32.946 569.475 32.5838 568.748 32.7565C567.978 32.9394 568.005 33.5214 568.508 34.1805C569.214 35.1058 570.986 35.1434 571.006 36.6786C571.014 37.3424 570.664 38.174 570.589 38.8587C570.477 39.8825 570.354 40.8981 570.148 41.9036C569.794 43.6321 569.221 45.2764 568.538 46.8619C567.949 48.2276 567.233 49.6508 566.137 50.5434C565.423 51.1251 565.698 50.8625 565.838 51.7199C565.932 52.2942 565.917 52.7218 565.281 52.5801C565.16 52.5364 565.038 52.493 564.917 52.4494C566.407 55.299 570.173 57.0951 572.752 55.1935C571.665 54.1702 573.141 52.3862 573.764 51.6304C574.697 50.4981 575.675 49.1952 576.676 48.1615C578.208 46.579 580.213 47.3491 582.026 46.6834C583.86 46.0097 585.195 44.4896 586.381 42.7907C587.437 41.2777 588.838 39.4261 588.98 37.3781C589.008 36.9771 588.842 36.507 588.902 36.1277C588.964 35.741 589.165 35.6907 589.269 35.4375C589.484 34.9165 589.536 34.3802 589.57 33.7837C589.681 31.837 589.151 31.5314 587.585 31.0285C586.673 30.7352 585.748 30.5051 584.834 30.2186C583.961 29.9453 583.183 29.4194 582.323 29.1261C580.513 28.5084 579.059 30.4342 577.465 31.1774ZM582.131 43.4101C583.571 44.4301 581.301 45.0832 580.463 44.6323C579.331 44.0231 581.327 42.8405 582.131 43.4101ZM584.843 34.9292C586.15 36.7525 587.603 40.4584 584.741 41.2085C583.857 41.44 582.49 41.814 581.602 41.5303C580.333 41.1247 580.664 39.1913 581.93 39.1064C582.68 39.0561 584.401 39.7488 584.847 38.7318C585.088 38.1803 584.539 37.304 584.455 36.7536C584.348 36.0453 584.446 35.4793 584.843 34.9292ZM506.812 40.4044L506.813 40.4064C506.817 40.4139 506.825 40.4229 506.835 40.4334L506.84 40.4382L506.83 40.4276L506.812 40.4044ZM587.432 35.581C588.34 35.5785 587.89 37.8297 587.44 38.2142C586.631 38.9041 586.286 35.5837 587.432 35.581ZM581.448 37.2783C580.395 37.4275 580.632 34.4845 581.592 34.3941C582.852 34.2752 582.666 37.1061 581.448 37.2783ZM590.56 32.3937C590.434 32.6936 590.531 35.6136 590.832 35.6688C590.914 34.9556 590.869 34.2384 590.86 33.522L590.859 33.341C590.866 33.3523 590.916 31.5476 590.56 32.3937Z" fill="black"/>
<path fill-rule="evenodd" clip-rule="evenodd" d="M267.649 70.4772C275.392 72.8873 283.05 75.7211 290.728 78.3958C291.592 78.6968 291.589 78.7473 292.362 78.2042C294.463 76.7269 296.604 75.3237 298.77 73.9793C305.302 69.9248 312.017 66.6805 319.209 64.6164C324.308 63.1534 329.491 61.9933 334.691 61.1412C334.162 63.0405 333.136 65.0206 331.868 66.3584C330.885 67.3952 329.545 67.962 328.33 68.518C324.719 70.1713 320.938 71.3276 317.389 73.1655C313.769 75.0401 311.482 78.937 310.794 83.4584C310.666 84.3042 310.673 84.4329 311.268 84.8596C311.935 85.3383 312.745 85.6183 313.48 85.9105C319.38 88.2563 325.602 89.7009 331.703 91.1247C334.942 91.8806 338.192 92.583 341.46 93.1492C343.487 93.5007 345.63 93.9721 347.689 93.8318C356.515 93.2307 361.746 80.9682 364.33 72.6739C372.305 77.7165 381.453 80.9393 390.385 82.4943C401.216 84.3799 414.86 84.4835 423.421 75.1669C427.499 70.7296 430.002 64.7213 431.842 58.6699C425.842 58.0694 419.868 57.0188 413.917 55.9562C412.878 55.7705 411.839 55.5816 410.801 55.3894C410.383 55.312 409.742 55.0382 409.315 55.111C408.666 55.2208 407.829 56.0418 407.254 56.4057C402.851 59.1952 398.299 61.7533 393.575 63.7163C391.044 64.768 388.416 65.6983 385.732 66.0097C382.853 66.3441 379.906 65.6568 377.125 64.8364C370.151 62.778 362.855 59.2954 357.038 54.2765C355.623 56.6316 353.069 58.227 350.633 57.0905C347.966 55.8458 346.483 52.5815 345.054 49.8968C344.533 48.9193 343.552 48.9124 342.584 48.6241C339.879 47.8187 337.142 47.1622 334.391 46.6174C325.356 44.8285 316.067 44.2216 306.949 45.4556C298.051 46.66 289.292 50.0102 281.447 55.0459C278.034 57.2366 274.711 59.7749 271.875 62.9109C270.084 64.8915 267.991 67.4837 267.649 70.4772Z" fill="white"/>
<path fill-rule="evenodd" clip-rule="evenodd" d="M294.528 2.36072C297.32 3.45193 299.839 5.05526 302.3 6.92219C303.499 7.8319 304.699 8.89648 306.024 9.54066C307.201 10.1121 308.485 10.3721 309.694 10.8417C315.108 12.9456 320.982 13.3687 326.487 11.3461C332.099 9.2842 336.863 4.85618 342.667 3.46731C348.327 2.11277 354.083 2.41234 359.518 4.86524C362.158 6.05668 364.384 8.05871 366.637 10.0083C368.796 11.8766 371.061 13.7194 372.732 16.2134C374.374 18.6628 375.321 21.7107 376.044 24.6746C376.461 26.3839 376.654 28.149 376.624 29.927C376.603 31.1708 376.039 32.3724 376.371 33.5749C376.836 35.2611 377.513 36.5006 377.338 38.378C377.197 39.8899 376.608 41.1928 375.688 42.2541C374.744 43.3428 373.614 44.0905 372.355 44.5628C371.403 44.9201 371.103 44.8297 370.549 43.861C369 45.4981 367.894 47.5668 365.953 48.6481C364.989 49.1852 364.002 49.4439 362.941 49.5227C362.137 49.5823 361.399 49.6095 360.719 50.1803C360.006 50.7798 357.4 53.4534 358.397 54.5051C358.979 55.1186 360.336 55.2402 361.076 55.5928C362.111 56.0859 363.106 56.6908 364.046 57.399C367.483 59.9897 370.904 61.606 374.878 62.7656C379.004 63.9694 383.164 64.6207 387.421 64.6385C391.287 64.655 395.339 64.3121 398.924 62.4847C400.646 61.6076 402.307 60.4445 403.715 58.9881C405.12 57.5349 405.982 55.5142 407.426 54.1619C408.36 53.2865 407.496 51.9388 407.207 50.7372C406.62 48.2928 406.171 45.5101 405.992 42.9826C405.819 40.5272 405.53 38.0789 405.156 35.6494C404.76 33.0737 403.935 30.6763 403.352 28.1608C402.922 26.306 402.49 24.129 402.988 22.2349C403.235 21.2953 403.784 20.3023 404.563 19.8539C405.259 19.4528 405.689 19.8361 406.313 19.793C408.145 19.6672 409.559 20.539 410.941 21.9655C411.688 22.7363 412.553 23.4112 413.265 24.2185C413.818 24.8462 413.949 25.8592 414.539 26.4158C415.508 23.5307 416.522 19.863 419.807 21.513C422.406 22.8187 422.74 27.7245 424.001 30.282C424.709 29.601 424.789 28.2591 425.065 27.3099C425.35 26.3274 425.83 25.2897 426.508 24.5947C427.988 23.0768 429.793 23.6864 430.812 25.5047C431.357 26.4767 431.033 27.5927 431.573 28.5526C432.11 29.5046 431.942 30.617 432.161 31.7258C432.439 33.1311 432.774 34.5159 432.998 35.9372C433.101 36.5942 433.252 37.3351 433.225 38.0095C433.214 38.289 433.021 38.7698 433.08 39.0458C433.158 39.4069 433.526 39.7317 433.66 40.0889C433.842 40.5689 433.774 40.9179 433.795 41.413C433.832 42.3043 434.036 43.0355 434.256 43.9159C434.808 46.1332 434.668 48.9398 433.85 51.0395C433.426 52.128 433.129 52.9196 433.002 54.0844C432.921 54.8365 432.436 55.5216 432.465 56.33C432.505 57.455 435.084 59.1899 433.048 59.9362C432.198 60.2479 432.016 60.085 431.784 61.2185C431.553 62.3438 431.292 63.4386 430.914 64.5106C430.113 66.7856 428.927 68.8224 427.808 70.8942C426.597 73.1368 425.326 75.3038 423.536 76.9761C421.877 78.5267 419.976 79.7882 418.082 80.9044C414.092 83.2559 409.652 84.5687 405.172 84.4416C400.395 84.3057 395.549 84.8326 390.815 83.8856C385.968 82.9157 381.239 81.3105 376.412 80.2338C374.243 79.75 372.222 79.2225 370.249 78.028C368.247 76.8166 366.25 75.5793 364.418 74.0344C363.156 77.5643 362.477 81.2437 360.668 84.491C359.089 87.3251 357.185 89.9897 354.854 92.0219C352.577 94.0075 349.602 95.4924 346.735 95.6201C345.86 95.6588 344.515 95.2107 343.888 95.9801C343.573 96.3651 343.541 97.1301 343.417 97.6243C343.205 98.4657 342.897 99.2864 342.727 100.141C342.468 101.437 343.511 101.457 344.424 101.983C345.649 102.689 346.846 103.46 348.03 104.254C349.24 105.065 350.394 105.998 351.606 106.797C352.647 107.483 353.721 108.012 354.723 108.789C357.091 110.625 359.685 111.85 362.227 113.303C364.949 114.86 367.596 116.596 370.271 118.258C375.569 121.551 380.883 124.969 385.885 128.85C388.22 130.662 390.464 132.548 392.859 134.262C395.092 135.86 397.642 137.731 399.063 140.354C400.172 142.399 401.765 143.368 403.598 144.482C404.679 145.139 405.347 145.263 406.224 144.188C407.085 143.133 407.918 142.084 408.826 141.077C412.552 136.951 415.739 132.433 418.846 127.682C421.152 124.154 424.315 119.918 428.551 120.691C429.821 120.923 430.664 121.613 431.603 122.583C432.241 123.242 433.392 123.673 433.817 124.526C434.062 125.018 434.165 125.65 434.412 126.166C434.671 126.707 434.992 127.234 435.165 127.825C435.457 128.825 434.827 130.414 435.455 131.228C435.916 131.824 435.488 133.229 435.362 133.903C435.13 135.149 434.933 136.414 434.566 137.618C434.277 138.566 433.993 139.864 433.384 140.604C432.841 141.263 432.204 141.199 432.346 142.341C431.758 142.113 431.253 143.756 431.087 144.17C430.641 145.283 430.155 146.197 429.438 147.12C427.624 149.452 425.547 151.03 423.194 152.513C422.336 153.053 420.557 153.806 420.357 155.056C420.166 156.256 420.753 157.231 420.34 158.513C419.482 161.181 417.554 163.994 415.98 166.146C414.564 168.082 413.19 169.375 410.92 168.921C408.909 168.518 406.918 167.32 405.245 165.991C403.229 164.391 401.093 163.187 398.915 161.917C397.844 161.292 396.772 160.715 395.843 159.816C394.98 158.982 394.231 158.042 393.23 157.422C392.518 156.98 391.587 156.667 391.29 155.684C390.966 154.611 391.558 153.942 392.061 153.174C392.399 152.658 392.586 152.578 392.294 152.163C392.061 151.833 391.421 151.552 391.1 151.351C390.323 150.864 389.546 150.438 388.715 150.973C387.787 151.57 387.154 152.805 386.459 153.702C385.627 154.776 384.692 155.755 383.779 156.735C381.969 158.679 379.985 160.42 378.216 162.41C377.811 162.864 377.015 164.018 376.348 163.799C375.855 163.638 376.114 163.297 375.86 163.034C375.587 162.751 375.354 162.747 375.004 162.441C374.134 161.68 373.868 160.221 372.955 159.433C372.017 158.623 370.858 158.041 369.841 157.375C365.203 154.332 360.685 151.051 356.445 147.29C354.319 145.405 352.311 143.358 350.252 141.378C349.283 140.445 348.3 139.424 347.222 138.666C346.239 137.975 345.146 137.492 344.145 136.83C341.999 135.41 339.703 134.323 337.579 132.857C336.58 132.168 335.84 131.242 334.911 130.474C334.098 129.802 333.42 129.404 332.815 128.426C332.528 129.165 331.738 128.2 331.453 127.974C331.229 127.795 330.942 127.669 330.734 127.465C330.524 127.26 330.398 126.803 330.239 126.66C329.887 126.344 329.478 126.416 329.005 126.218C328.374 125.953 327.541 125.249 327.055 124.711C326.719 124.339 327.267 124.631 326.7 124.175C326.435 123.962 325.982 123.905 325.685 123.68C324.981 123.146 324.333 122.461 323.66 121.871C322.441 120.805 320.864 119.833 320.172 118.17C316.455 121.733 312.865 125.6 308.596 128.267C304.473 130.842 299.704 132.012 295.302 133.789C290.772 135.617 286.197 137.455 281.591 139.005C279.352 139.758 277.043 140.299 274.754 140.808C272.407 141.33 270.091 141.174 267.736 141.47C266.578 141.615 265.418 141.568 264.261 141.699C263.195 141.819 262.161 142.135 261.102 142.3C260.169 142.445 259.117 142.322 258.219 142.618C257.561 142.836 256.691 143.606 256.209 142.604C255.856 143.221 255.743 142.93 255.283 142.89C254.793 142.848 254.645 142.873 254.164 142.98C253.383 143.154 252.521 143.221 251.858 142.505C251.555 143.789 248.614 142.621 248.264 141.773C247.869 143.132 244.297 141.959 244.245 140.684C244.202 139.604 244.816 138.052 245.07 137.037C245.483 135.382 245.996 133.763 246.532 132.157C247.099 130.458 247.68 128.765 248.263 127.074C248.52 126.331 248.762 125.576 249.054 124.851C249.198 124.496 249.571 123.965 249.565 123.555C249.547 122.355 247.704 122.269 246.925 121.97C246.336 121.743 245.737 121.504 245.178 121.191C244.772 120.963 244.284 120.439 243.835 120.367C242.805 120.2 243.038 121.561 242.926 122.397C242.782 123.473 242.274 124.027 241.298 124.035C240.158 124.044 236.906 121.754 236.292 123.499C236.004 124.317 236.083 125.885 235.977 126.763C235.804 128.203 235.873 129.635 236.042 131.071C236.319 133.435 237.234 136.426 236.204 138.692C234.147 143.218 227.014 140.49 224.737 137.642C221.384 133.446 221.482 127.159 223.088 122.079C223.87 119.608 225.001 116.961 226.481 114.952C227.138 114.059 228.388 113.198 228.605 111.971C228.785 110.954 228.108 110.017 228.25 108.974C228.42 107.736 229.317 106.986 230.085 106.235C230.886 105.454 231.664 104.602 232.576 103.997C234.686 102.598 237.08 103.443 239.178 104.47C241.472 105.594 243.67 107.101 245.719 108.742C246.734 109.554 247.594 110.285 248.797 110.678C249.719 110.979 250.651 111.275 251.578 111.558C252.452 111.825 253.189 112.024 253.803 111.141C254.478 110.17 254.702 109.778 255.871 109.736C257.115 109.692 258.361 109.773 259.605 109.828C259.868 109.84 260.464 109.745 260.671 110C260.856 110.228 260.589 110.703 260.761 110.847C261.032 111.075 262.574 108.532 262.706 110.59C262.79 109.591 263.689 110.075 264.19 110.207C264.372 110.254 264.554 110.311 264.734 110.358C264.93 110.281 265.093 110.34 265.221 110.532C265.427 110.584 265.566 110.492 265.639 110.258C267.815 110.221 270.011 110.381 272.193 110.368C274.716 110.352 277.253 110.323 279.753 109.897C280.678 109.739 281.605 109.521 282.532 109.388C282.957 109.328 283.314 109.38 283.729 109.412C283.88 109.446 284.017 109.519 284.14 109.632C284.204 109.487 284.298 109.376 284.423 109.302C286.011 108.759 287.643 108.391 289.256 107.917C290.386 107.586 291.332 107.33 292.456 107.236L292.669 107.221L293.121 107.376C293.187 107.188 293.294 107.041 293.443 106.936C293.81 106.761 294.121 106.693 294.516 106.646C296.088 106.459 297.631 106.478 299.116 106.21C299.899 106.068 302.759 105.551 303.286 106.457C303.69 105.354 306.602 106.855 307.455 106.204C306.132 104.097 305.555 101.843 305.181 99.2958C304.772 96.5208 304.516 93.6016 305.12 90.8376C305.676 88.2908 306.887 85.6767 308.543 83.885C310.145 82.1521 310.521 80.0792 311.589 77.9407C313.815 73.4847 317.483 70.7624 321.57 69.1185C323.795 68.2233 326.057 67.4783 328.302 66.6557C330.125 65.9876 331.651 65.0315 332.573 62.9877C324.811 62.9877 317.383 65.7981 310.275 69.2071C306.739 70.9027 303.219 72.6672 299.727 74.482C297.949 75.4054 296.191 76.3931 294.533 77.5857L294.075 77.9153C293.54 78.3012 293.009 78.6961 292.511 79.1412C292.392 79.2475 291.743 79.689 291.705 79.8365C291.409 80.9832 293.042 82.8273 293.465 83.8109C294.043 85.1503 294.608 86.7166 294.679 88.2265C294.763 90.0325 293.777 90.9362 292.256 90.5655C290.397 90.1121 288.989 88.3034 287.513 87.0458C287.184 88.1999 287.609 89.5275 287.84 90.6523C288.156 92.1949 288.47 93.7609 288.695 95.326C289.013 97.5384 288.787 100.035 286.901 101.194C282.096 104.148 279.647 96.3546 278.671 92.4615C278.011 93.0167 278.088 95.0512 277.967 95.9018C277.734 97.5387 277.466 99.296 276.843 100.799C276.366 101.95 275.556 103.294 274.363 103.418C273.069 103.553 272.026 102.254 271.446 101.056C270.444 98.9852 270.208 96.6767 270.129 94.3559C270.112 93.8446 270.239 89.1104 269.796 88.9756C268.494 91.6982 267.768 94.7255 266.239 97.322C264.899 99.5975 262.882 101.141 261.07 98.5099C258.264 94.4355 259.162 88.5475 260.311 83.9635C260.98 81.2978 261.89 78.7532 263.116 76.3695C263.625 75.3807 264.241 74.6388 264.872 73.7672C265.393 73.0484 265.593 72.7109 265.369 71.8825C265.238 71.3995 265.114 71.3819 265.231 70.8478C265.315 70.4648 265.567 69.9933 265.71 69.6374C266.122 68.6206 266.553 67.6173 267.057 66.6579C268.134 64.6084 269.6 62.9036 271.14 61.3226L271.295 61.1643L271.288 61.1722C271.188 61.2789 271.909 60.6379 271.894 60.6364L271.89 60.6382L271.909 60.6249C272.175 60.422 272.276 59.7551 272.579 60.3504L272.601 60.395C272.648 59.5191 273.28 59.0213 273.822 58.5306C274.024 58.3477 274.226 58.0937 274.471 57.9844C274.641 57.9084 275.038 57.9831 275.161 57.8768C275.402 57.6706 275.519 57.262 275.747 57.019C275.976 56.776 276.291 56.6623 276.552 56.4769C277.189 56.0225 277.775 55.4662 278.397 54.9818C279.719 53.9526 281.099 53.0254 282.513 52.1805C285.487 50.4025 288.644 48.9719 291.803 47.7101C294.587 46.5981 297.473 45.5678 300.333 44.7578C303.268 43.926 306.353 44.1331 309.351 43.7912C315.46 43.094 321.91 43.2346 328.017 43.9304C331.01 44.2715 333.986 44.8047 336.938 45.4714C339.801 46.1178 342.779 46.8534 345.322 48.6009C345.864 48.9733 346.843 50.1674 347.478 50.1235C348.013 50.0867 348.477 48.9348 348.729 48.4809C349.326 47.4029 350.077 46.4122 350.584 45.2762C351.209 43.8772 351.528 42.3046 351.998 40.8325C349.819 41.1832 347.531 41.4105 345.439 40.436C343.546 39.5535 342.269 37.7898 340.855 36.1612C339.364 34.4459 337.768 33.2835 335.637 33.1259C333.218 32.9469 331.038 33.9598 328.813 34.9039C324.114 36.8985 319.415 39.09 314.579 40.5945C312.215 41.3298 309.785 41.9103 307.336 42.041C306.089 42.1072 304.827 42.0418 303.593 42.3106C303.082 42.4218 302.929 42.5149 302.524 42.2513C302.579 42.2873 302.01 41.1818 301.897 41.6121C301.788 42.0267 301.966 42.3507 301.655 42.6632C301.289 43.0301 300.496 42.8516 300.072 42.8093C299.438 42.7461 298.933 42.4949 298.322 42.3277C297.378 42.0693 296.32 42.2395 295.358 42.0984C294.911 42.0327 294.587 41.9012 294.185 41.7568C293.764 41.6055 294.035 41.6247 293.601 41.5602C293.217 41.5031 292.999 41.5621 292.534 41.3855C292.118 41.2277 291.733 41.1189 291.308 41.003C290.918 40.8973 290.603 40.707 290.241 40.5832C290.696 40.7389 289.656 40.2575 289.701 40.3856L289.705 40.3938L289.701 40.3894C289.589 40.2409 289.458 39.9423 289.234 39.8959L289.188 39.8901C289.924 41.2087 286.689 39.8154 286.475 39.7394C284.687 39.1045 282.856 37.6635 280.988 37.5309C279.165 37.4013 277.396 38.8519 275.928 39.9278C274.155 41.2271 272.39 42.5372 270.624 43.8497C266.72 46.7507 262.493 49.3456 258.111 51.1087C255.98 51.9663 253.797 52.6541 251.635 53.3969C250.661 53.7316 249.596 53.8692 248.665 54.3494C248.036 54.674 247.128 55.6452 246.492 54.7849C246.236 55.5376 244.992 55.4991 244.465 55.5225C244.384 55.526 244.514 55.7064 244.328 55.6913C244.055 55.6688 243.982 55.3591 243.767 55.2943C243.329 55.163 243.284 55.3596 242.851 55.5549C242.288 55.8083 242.395 55.5889 241.897 55.5291C241.612 55.4947 241.311 55.6773 241.025 55.6878C240.909 55.6922 240.757 55.4667 240.589 55.47C240.428 55.4736 240.05 55.6985 239.836 55.7358C239.301 55.8297 238.672 55.7674 238.132 55.7394C237.361 55.699 229.63 54.8945 230.185 53.0081C229.255 54.0098 227.097 52.3724 226.128 51.8523C225.767 51.6587 225.743 51.4706 225.54 51.2523C225.596 50.9901 225.5 50.8731 225.251 50.9011C225.198 50.894 225.145 50.8871 225.092 50.88C224.666 50.6265 224.514 50.6323 224.175 50.1878C223.723 49.5944 222.89 49.0578 222.655 48.2846C222.592 48.077 222.659 47.7187 222.595 47.5555C222.513 47.3463 222.298 47.3705 222.248 47.2008C222.231 47.1415 222.314 46.7524 222.308 46.7461C221.917 46.3638 221.365 46.5451 220.912 46.0862C219.659 44.8174 218.904 42.2722 218.543 40.4648C217.601 35.7378 217.279 30.9847 219.108 26.5135C219.997 24.3396 221.086 22.272 222.288 20.3161C222.621 19.7751 222.969 19.0609 223.393 18.6043C223.584 18.3992 223.833 18.3572 223.926 18.2344C224.422 17.5795 224.679 16.7374 225.344 16.1C226.084 15.3902 226.813 14.6606 227.63 14.0736C228.38 13.5346 229.314 13.1867 230.002 12.6825C230.19 12.5441 230.125 12.3258 230.33 12.1613C230.547 11.987 230.828 11.9735 231.074 11.8887C231.366 11.7884 231.728 11.6037 232.031 11.5732C232.597 11.5158 232.787 11.705 233.213 12.174C233.213 10.3691 236.061 10.1178 237.212 10.1146C237.744 10.1129 240.414 9.83475 240.363 10.7848C240.971 9.84628 242.821 10.5446 243.625 10.826C244.59 11.1635 245.201 11.9892 245.821 12.8712C245.935 12.5916 246.05 12.3118 246.165 12.0323C246.341 12.1756 246.935 12.414 246.744 12.7921C247.439 12.0757 247.047 12.6658 247.643 12.7932C247.905 12.8492 248.131 12.7363 248.406 12.6982C248.429 13.1227 248.271 13.2602 248.046 13.5563C248.585 13.5681 250.659 13.3165 249.124 14.1082C249.329 14.5365 250.303 14.3861 250.645 14.4437C250.827 14.4742 251.278 14.4852 251.387 14.6401C251.458 14.7419 251.332 15.0237 251.348 15.0486C251.495 15.2801 251.191 15.399 251.491 15.466C251.565 15.4825 251.798 15.2087 251.851 15.2098C252.241 15.217 251.968 15.1266 252.38 15.1961C252.526 15.2205 252.806 15.4144 252.993 15.4592C255.812 16.1327 259.258 13.5988 261.307 11.6372C263.754 9.29326 265.885 6.78791 268.828 5.26642C271.675 3.79489 274.846 2.63448 277.872 1.79287C283.467 0.236499 289.023 0.209315 294.528 2.36072ZM365.749 152.342C365.839 152.398 365.93 152.454 366.02 152.51C366.149 152.434 366.278 152.358 366.407 152.282C366.037 152.077 366.012 151.987 365.749 152.342ZM395.795 143.006C395.117 143.506 394.535 144.634 393.941 145.307C393.107 146.253 392.236 147.151 391.366 148.05C392.369 148.456 393.824 150.1 394.909 149.355C395.447 148.986 395.786 147.902 396.126 147.326C396.653 146.436 397.268 145.599 397.887 144.795C398.524 143.966 396.506 142.482 395.795 143.006ZM332.213 125.945C332.482 126.076 333.07 126.833 332.797 127.099C332.521 126.725 332.149 126.455 332.213 125.945ZM245.893 113.96C245.402 114.455 244.849 115.489 244.507 116.14C244.122 116.873 244.108 117.243 244.696 117.732C245.833 118.678 247.484 118.956 248.802 119.397C249.505 119.633 250.375 120.225 250.973 119.476C251.565 118.735 251.566 117.354 251.832 116.434C252.048 115.69 252.279 114.951 252.503 114.21C251.261 114.356 250.011 114.366 248.79 114.041C247.903 113.806 246.677 113.169 245.893 113.96ZM267.35 74.3186C266.347 75.9088 265.453 77.5931 264.664 79.3398C263.358 82.2309 262.343 85.3005 261.7 88.483C261.245 90.7377 260.579 93.9075 261.619 96.0704C263.886 100.782 268.486 87.1804 269.188 85.7577C269.606 84.9106 270.255 84.002 270.974 85.091C271.563 85.9848 271.371 87.4173 271.399 88.4698C271.48 91.5979 271.106 95.3442 272.177 98.2875C272.529 99.2535 273.461 100.649 274.512 100.21C275.455 99.8161 275.926 97.9212 276.217 96.945C277.139 93.8567 277.793 90.0819 277.823 86.8141C277.829 86.1575 277.324 81.8174 278.625 82.7776C279.476 83.4053 279.441 86.4524 279.524 87.4495C279.847 91.3448 280.507 97.9599 284.647 98.6153C285.558 98.7598 286.59 98.508 287.124 97.5513C287.787 96.3626 287.12 94.7642 286.888 93.5148C286.487 91.361 286.033 89.1406 285.993 86.9233C285.969 85.5641 286.083 83.3045 287.719 83.829C289.69 84.4608 290.524 87.4706 292.737 87.5714C292.739 86.9656 292.452 86.4719 292.209 85.9658C291.421 84.3301 289.987 82.9295 289.501 81.1199C289.342 80.5263 289.507 79.6336 289.192 79.1388C288.895 78.6717 288.223 78.552 287.774 78.4462C284.785 77.7414 281.846 76.7872 278.87 75.9747C275.689 75.1064 272.74 74.1679 269.761 72.639C268.418 71.95 268.112 73.1118 267.35 74.3186ZM338.677 98.7164C339.115 98.9597 339.551 99.2131 339.995 99.4432C340.381 99.6439 340.533 99.4841 340.686 99.0629C340.408 98.9956 338.839 98.3449 338.677 98.7164ZM319.84 45.9489C314.151 46.1436 308.59 46.2285 302.983 47.4891C300.302 48.0921 297.673 48.7906 295.044 49.6468C293.933 50.0085 292.954 50.3855 291.985 51.1068C291.625 51.3748 290.671 52.2164 290.525 51.2545C290.046 51.7903 289.112 53.4257 288.347 52.5171C288.212 53.1739 287.794 53.1536 287.385 53.3768C287.242 53.4554 287.163 53.7225 286.978 53.8195C286.932 53.8436 286.916 53.4683 286.849 53.462C286.605 53.4394 286.412 54.0391 286.272 54.1921C285.935 54.5587 285.618 54.7264 285.171 54.8596C284.977 54.9354 284.777 54.984 284.573 55.0054C284.333 55.1205 284.189 55.0378 284.142 54.7575C283.81 54.7638 283.568 54.9044 283.221 55.0878C283.97 55.2882 282.709 55.5087 282.542 55.531C282.521 56.1845 283 55.7704 283.309 55.9058C283.166 56.726 281.864 57.3521 281.328 57.7543C281.236 57.527 281.145 57.2996 281.053 57.0725C280.905 57.2397 280.79 57.4322 280.708 57.65C280.653 57.9136 280.492 58.0047 280.227 57.9235C279.978 58.1536 279.941 58.047 279.789 58.3711C279.631 58.7069 280.097 59.3604 279.42 59.0789C279.42 60.1943 278.532 59.5183 278.687 59.2289C278.016 59.1531 277.73 60.5875 277.805 61.1471C277.484 60.7757 277.287 60.8226 276.965 61.1128L276.936 61.1387L276.953 61.1247C277.201 60.9288 276.946 61.7301 276.968 61.7208L276.971 61.7175C276.289 62.7661 276.353 61.592 276.565 60.9733C276.103 61.1894 276.015 61.7743 275.644 62.1044C275.314 62.3982 275.221 62.2617 274.937 62.3056C274.5 62.3732 274.632 61.9533 274.44 62.5157C274.359 62.754 274.482 63.181 274.482 63.4411C274.672 63.1385 274.6 62.6599 274.943 62.4866C274.84 63.3634 273.379 66.3756 272.765 64.6004C272.168 65.085 272.826 65.6161 272.434 66.2652C272.142 65.9368 272.072 65.4143 272.105 64.9667C271.922 65.2512 271.928 65.6106 271.784 65.8984C271.635 66.1985 271.478 66.2226 271.406 66.5489C271.296 67.0442 271.67 66.8015 271.473 67.327C271.374 67.5909 270.91 67.8219 270.727 67.9704C270.088 68.4905 269.442 69.0929 270.062 69.9573C271.034 71.3102 273.594 71.4651 274.97 71.6925C277.902 72.1774 280.76 72.9827 283.649 73.7288C285.389 74.1783 287.093 74.6786 288.799 75.278C290.025 75.708 291.717 75.9755 292.364 77.4563C295.779 73.6445 300.334 71.6557 304.549 69.3694C309.115 66.8935 313.83 64.5943 318.667 62.9397C322.955 61.4723 327.354 60.9154 331.784 60.4096C332.952 60.2762 334.752 59.9348 335.792 60.7721C336.435 61.2888 336.464 62.0714 335.973 62.7628C335.706 63.1374 335.419 63.0402 335.256 63.708C335.13 64.2242 335.199 64.6152 335.315 65.1262C335.019 64.8561 334.49 65.017 334.339 64.5405L334.324 64.4871L334.31 64.5438C334.108 65.4739 335.517 65.6025 335.085 66.718L335.057 66.7861C334.908 67.1269 334.907 66.0337 334.776 66.0258C334.418 66.0041 334.125 66.9789 333.978 67.2491C334.643 67.2491 334.39 67.8136 334.033 68.0986C333.779 68.3021 333.349 68.3611 333.053 68.5292C332.463 68.8653 331.944 69.3579 331.339 69.6783C330.676 70.0295 330.093 70.0512 329.434 70.2597C329.333 70.2918 328.928 70.4686 328.887 70.4727C328.832 70.4785 328.819 70.6778 328.771 70.6855C328.351 70.755 328.032 70.2989 327.625 70.4848C327.469 70.5562 327.55 71.0008 327.415 71.1015C327.265 71.2127 326.842 71.0708 326.662 71.059C326.227 71.0299 326.16 70.9629 325.815 71.1982C325.222 71.6024 324.921 72.1488 324.121 72.248C323.497 72.3257 323.094 72.1878 322.499 72.4613C321.898 72.7378 321.328 72.799 320.741 72.9844C320.667 73.008 320.647 73.3048 320.587 73.3254C320.393 73.3924 320.161 73.3414 319.975 73.4078C319.55 73.5608 319.204 73.697 318.809 73.9713C317.071 75.177 315.158 76.9868 313.796 78.7244C313.174 79.5177 311.438 81.5159 312.004 82.6642C312.367 83.4009 313.62 83.759 314.245 84.0701C315.178 84.5344 316.142 84.8724 317.084 85.3024C318.256 85.8373 319.319 86.6682 320.514 87.1339C321.668 87.5835 322.902 87.6721 324.094 87.9121C329.249 88.9501 334.3 90.6193 339.459 91.6545C342.289 92.2224 345.177 92.9 348.051 92.3649C350.583 91.8931 353.008 90.5855 355.031 88.7587C358.712 85.4345 361.277 80.7146 362.567 75.5224C362.833 74.4499 362.889 71.7669 363.749 71.1106C364.465 70.5642 364.84 71.7685 365.305 72.2444C366.06 73.0173 367.166 73.3164 368.074 73.7574C370.323 74.8488 372.365 76.001 374.741 76.7394C377.151 77.4877 379.593 78.0745 382.029 78.6915C386.966 79.9422 391.679 81.1251 396.753 81.1443C401.775 81.163 406.815 81.3835 411.781 80.3038C416.125 79.3595 420.494 76.7798 423.741 73.2771C425.381 71.5085 426.645 69.2747 427.935 67.1634C428.626 66.031 429.269 64.8571 429.809 63.6163C430.206 62.7043 430.889 61.3838 430.959 60.3497C431.021 59.4257 430.558 59.557 429.767 59.4625C428.551 59.3176 427.329 59.2256 426.112 59.0795C423.657 58.7857 421.211 58.4109 418.757 58.1064C416.253 57.7955 413.766 57.374 411.333 56.5997C410.606 56.3682 410.068 56.0763 409.555 56.9012C409.224 57.4322 409.23 58.644 408.539 57.7543C407.211 59.7119 405.269 60.8841 403.454 62.1126C401.49 63.4419 399.582 64.9046 397.501 65.978C393.017 68.2911 388.075 68.1077 383.316 67.3666C378.481 66.6134 373.582 65.6419 369.038 63.4941C366.954 62.5091 365.163 61.0104 363.294 59.5803C362.414 58.9068 361.501 58.3527 360.567 57.7914C359.513 57.1587 358.869 56.2208 357.916 55.4895C357.274 57.9303 354.804 58.7695 352.853 58.8785C350.417 59.0147 348.448 57.6571 346.971 55.4522C345.744 53.6218 345.506 50.8838 343.608 49.8819C341.442 48.739 338.903 48.2849 336.585 47.7533C331.142 46.5052 325.387 45.7586 319.84 45.9489ZM348.717 64.7146C349.329 65.0342 351.109 67.4245 349.697 67.4594C348.799 67.4816 348.271 66.1672 347.28 66.3663C346.835 66.4558 346.17 66.6348 346.061 67.0354C345.788 68.033 347.046 68.6755 347.59 68.9526C348.427 69.3793 349.115 69.8085 349.572 70.7847C350.274 72.2845 350.459 74.711 348.817 75.3818C347.596 75.8805 346.071 75.4936 344.866 75.1015C343.851 74.7709 343.076 73.5454 343.543 72.3276C343.675 71.9827 344.03 71.3745 344.443 71.6024C344.771 71.7836 344.611 72.1269 344.712 72.4341C345.115 73.6654 348.132 75.4205 348.827 73.5597C349.674 71.2905 346.453 70.607 345.47 69.8483C344.199 68.8678 344.166 67.1903 345.135 65.9085C345.985 64.7852 347.482 64.0704 348.717 64.7146ZM354.037 72.4047C353.986 72.9393 353.923 73.4935 353.844 74.0231C353.775 74.4836 353.778 74.9674 353.325 75.1338C353.026 75.2437 352.735 74.8733 352.447 75.1193C352.128 75.3922 352.281 73.4072 352.295 73.2958C352.389 72.5555 352.561 71.0524 353.171 70.5932C354.203 69.8162 354.099 71.7528 354.037 72.4047ZM353.971 69.3022C352.877 70.1114 352.593 67.8164 353.028 67.0701C354.11 65.2172 355.698 68.0273 353.971 69.3022ZM331.728 68.1744C332.041 68.4457 331.938 68.2963 331.938 69.0185C331.574 69.0372 331.629 68.4553 331.728 68.1744ZM332.965 67.5497C332.86 67.8364 333.334 68.1805 333.486 68.2252C333.496 68.1327 333.265 66.7367 332.965 67.5497ZM273.561 63.3568C273.27 63.8492 273.435 64.1512 273.898 63.9573L273.936 63.9405L273.561 63.3568ZM279.412 58.6217L279.135 58.7585C279.004 58.9043 278.874 59.0498 278.743 59.1954C279.124 59.1089 279.388 59.1756 279.412 58.6217ZM280.947 57.9297C280.756 57.4756 280.1 58.3765 280.086 58.5874C280.239 58.4817 281.169 58.4586 280.947 57.9297ZM281.562 56.3248C281.403 56.5865 281.435 56.7963 281.659 56.9542C281.845 56.6639 281.987 56.3468 282.083 56.0022C281.835 55.7916 281.65 56.0766 281.562 56.3248ZM407.087 23.903C406.607 24.1545 406.858 25.0206 406.904 25.4899C407.127 27.725 407.481 29.9379 407.701 32.1725C408.009 35.3155 408.053 38.4963 408.558 41.6113C409.019 44.4519 409.797 47.2104 410.207 50.0642C410.482 51.9734 409.957 54.1795 411.908 54.7586C413.663 55.2795 415.663 55.3077 417.462 55.5367C419.779 55.8317 422.099 55.9766 424.426 56.1082C425.528 56.1702 426.663 56.1864 427.754 56.3814C428.397 56.4962 429.197 56.9934 429.691 56.2993C430.172 55.6243 430.173 53.9065 430.323 53.0449C430.521 51.9072 430.699 50.7636 430.796 49.6073C431.016 46.9894 430.692 44.397 430.395 41.8048C430.075 39.0106 429.83 36.2046 429.499 33.4131C429.285 31.6138 429.31 28.7081 428.249 27.2558C427.282 30.6274 427.02 34.2072 426.971 37.7426C426.961 38.5015 426.535 42.8634 425.404 40.737C425.09 40.1455 425.085 39.8078 424.596 39.3077C424.093 38.7923 423.917 38.3802 423.746 37.5998C423.438 36.1862 423.388 34.9431 422.721 33.6721C421.362 31.0849 420.812 27.8818 418.789 25.7933C418.769 28.2209 418.468 30.8466 418.855 33.2445C419.098 34.7515 420.094 36.9205 419.273 38.4112C418.863 39.1548 418.626 38.9329 418.144 38.5595C417.835 38.32 417.883 38.2086 417.495 37.9688C417.125 37.7404 416.834 37.7511 416.483 37.432C415.244 36.3029 415.146 34.341 414.74 32.7165C413.846 29.1304 410.754 26.9155 408.386 24.6974C408.128 24.456 407.483 23.6957 407.087 23.903ZM360.358 31.1684C358.543 32.0147 356.671 32.337 354.742 31.859C354.743 32.3538 355.355 33.1578 354.883 33.4422C354.77 33.5101 354.127 33.1852 354.002 33.1473C353.306 32.9367 352.368 32.5745 351.641 32.7473C350.872 32.9301 350.898 33.512 351.401 34.171C352.107 35.0961 353.879 35.1337 353.899 36.6687C353.908 37.3323 353.557 38.1638 353.482 38.8483C353.37 39.872 353.248 40.8874 353.042 41.8927C352.687 43.621 352.114 45.2649 351.431 46.8501C350.843 48.2157 350.127 49.6386 349.031 50.531C348.317 51.1126 348.592 50.8501 348.732 51.7073C348.826 52.2815 348.81 52.709 348.175 52.5673C348.053 52.5237 347.932 52.4803 347.811 52.4366C349.3 55.2858 353.067 57.0816 355.646 55.1803C354.558 54.1572 356.034 52.3735 356.657 51.6178C357.59 50.4857 358.568 49.183 359.569 48.1495C361.101 46.5673 363.107 47.3373 364.919 46.6717C366.754 45.9981 368.089 44.4782 369.274 42.7796C370.331 41.2669 371.731 39.4156 371.874 37.368C371.902 36.9671 371.735 36.497 371.796 36.1178C371.857 35.7312 372.058 35.681 372.163 35.4278C372.377 34.9069 372.429 34.3706 372.463 33.7742C372.574 31.8279 372.045 31.5223 370.479 31.0195C369.566 30.7263 368.641 30.4962 367.727 30.2098C366.855 29.9366 366.077 29.4107 365.217 29.1175C363.406 28.4999 361.953 30.4253 360.358 31.1684ZM365.024 43.399C366.465 44.4188 364.194 45.0718 363.356 44.6209C362.224 44.0119 364.22 42.8295 365.024 43.399ZM367.737 34.9195C369.044 36.7425 370.497 40.4478 367.634 41.1977C366.751 41.4292 365.384 41.8032 364.496 41.5195C363.226 41.114 363.558 39.1809 364.824 39.096C365.574 39.0458 367.295 39.7383 367.74 38.7215C367.982 38.1701 367.432 37.2939 367.349 36.7436C367.241 36.0355 367.339 35.4695 367.737 34.9195ZM289.705 40.3938L289.706 40.3958C289.711 40.4033 289.718 40.4123 289.728 40.4228L289.733 40.4276L289.724 40.417L289.705 40.3938ZM370.326 35.5712C371.234 35.5688 370.784 37.8196 370.333 38.204C369.525 38.8938 369.18 35.574 370.326 35.5712ZM364.342 37.2683C363.288 37.4174 363.526 34.4749 364.485 34.3845C365.745 34.2656 365.56 37.0961 364.342 37.2683ZM373.454 32.3845C373.328 32.6844 373.424 35.6038 373.726 35.659C373.807 34.9459 373.762 34.2289 373.754 33.5126L373.752 33.3317C373.759 33.3429 373.809 31.5385 373.454 32.3845Z" fill="black"/>
<path fill-rule="evenodd" clip-rule="evenodd" d="M50.543 70.4932C58.2854 72.9037 65.9439 75.7379 73.6214 78.4132C74.4852 78.7142 74.4828 78.7647 75.2553 78.2215C77.3564 76.7439 79.4975 75.3406 81.6633 73.9959C88.1955 69.9406 94.9104 66.6958 102.103 64.6314C107.201 63.1681 112.384 62.0078 117.584 61.1556C117.055 63.0552 116.029 65.0356 114.761 66.3737C113.778 67.4107 112.438 67.9775 111.223 68.5337C107.612 70.1873 103.831 71.3438 100.282 73.1819C96.6622 75.0568 94.3753 78.9545 93.6879 83.4767C93.5593 84.3225 93.567 84.4514 94.1617 84.8781C94.8281 85.3568 95.6383 85.637 96.3731 85.9292C102.273 88.2754 108.495 89.7203 114.597 91.1442C117.835 91.9003 121.086 92.6028 124.353 93.1691C126.381 93.5207 128.524 93.9922 130.583 93.8519C139.409 93.2507 144.64 80.986 147.224 72.6903C155.198 77.7337 164.347 80.9571 173.279 82.5124C184.11 84.3983 197.753 84.5019 206.315 75.1837C210.392 70.7456 212.896 64.7363 214.735 58.6838C208.735 58.0832 202.761 57.0324 196.81 55.9696C195.771 55.7839 194.733 55.595 193.695 55.4027C193.277 55.3253 192.635 55.0515 192.208 55.1243C191.56 55.2341 190.722 56.0553 190.148 56.4192C185.745 59.2092 181.192 61.7677 176.469 63.7311C173.938 64.783 171.31 65.7134 168.626 66.0249C165.747 66.3594 162.799 65.672 160.019 64.8513C153.044 62.7927 145.748 59.3094 139.931 54.2896C138.516 56.6452 135.962 58.2408 133.527 57.1041C130.859 55.8592 129.377 52.5943 127.947 49.9092C127.427 48.9315 126.446 48.9246 125.477 48.6362C122.773 47.8307 120.035 47.1741 117.284 46.6292C108.25 44.8399 98.9604 44.233 89.8424 45.4672C80.9449 46.6718 72.1853 50.0226 64.3401 55.0592C60.9273 57.2502 57.6044 59.789 54.7687 62.9256C52.9776 64.9065 50.8848 67.4991 50.543 70.4932Z" fill="#0000EE"/>
<path fill-rule="evenodd" clip-rule="evenodd" d="M77.4211 2.36492C80.2136 3.45632 82.7327 5.05993 85.1937 6.92718C86.3929 7.83705 87.5926 8.90182 88.9179 9.54612C90.0945 10.1176 91.3789 10.3777 92.5873 10.8473C98.0012 12.9516 103.876 13.3748 109.381 11.3519C114.993 9.28961 119.756 4.86082 125.56 3.47171C131.22 2.11692 136.976 2.41655 142.411 4.86988C145.051 6.06153 147.278 8.06391 149.531 10.0138C151.689 11.8825 153.955 13.7255 155.626 16.2201C157.267 18.6698 158.215 21.7183 158.938 24.6827C159.355 26.3923 159.547 28.1577 159.517 29.936C159.496 31.1801 158.933 32.3819 159.264 33.5845C159.729 35.2711 160.406 36.5108 160.232 38.3885C160.091 39.9006 159.502 41.2038 158.582 42.2652C157.638 43.3542 156.508 44.102 155.249 44.5744C154.297 44.9317 153.996 44.8413 153.443 43.8724C151.894 45.5098 150.787 47.5789 148.846 48.6604C147.883 49.1976 146.896 49.4563 145.834 49.5352C145.03 49.5947 144.292 49.6219 143.613 50.1929C142.9 50.7924 140.294 53.4666 141.291 54.5184C141.873 55.132 143.229 55.2536 143.969 55.6063C145.004 56.0995 146 56.7045 146.939 57.4128C150.376 60.004 153.797 61.6205 157.771 62.7803C161.897 63.9843 166.058 64.6358 170.314 64.6536C174.181 64.6701 178.232 64.3271 181.818 62.4994C183.539 61.6222 185.2 60.4588 186.608 59.0022C188.013 57.5488 188.876 55.5277 190.319 54.1751C191.254 53.2996 190.389 51.9517 190.101 50.7499C189.514 48.3051 189.064 45.5219 188.886 42.9939C188.713 40.5381 188.423 38.0894 188.05 35.6594C187.654 33.0833 186.829 30.6855 186.246 28.1695C185.816 26.3143 185.384 24.137 185.882 22.2426C186.129 21.3028 186.677 20.3097 187.456 19.8612C188.153 19.46 188.582 19.8434 189.207 19.8002C191.039 19.6744 192.453 20.5464 193.835 21.9732C194.582 22.7441 195.447 23.4191 196.158 24.2266C196.712 24.8544 196.843 25.8675 197.433 26.4242C198.401 23.5386 199.416 19.8703 202.701 21.5206C205.299 22.8265 205.634 27.7331 206.894 30.2911C207.603 29.61 207.682 28.2678 207.958 27.3184C208.243 26.3358 208.724 25.2979 209.401 24.6028C210.882 23.0846 212.687 23.6943 213.706 25.513C214.25 26.4852 213.926 27.6013 214.467 28.5614C215.003 29.5136 214.836 30.6261 215.055 31.7351C215.332 33.1407 215.668 34.5257 215.891 35.9472C215.995 36.6044 216.145 37.3454 216.119 38.0199C216.108 38.2995 215.914 38.7804 215.974 39.0564C216.052 39.4175 216.419 39.7424 216.554 40.0997C216.735 40.5798 216.668 40.9289 216.688 41.424C216.726 42.3155 216.93 43.0469 217.149 43.9273C217.701 46.145 217.561 48.9521 216.744 51.0522C216.319 52.1409 216.022 52.9327 215.896 54.0977C215.815 54.8499 215.329 55.5351 215.358 56.3437C215.399 57.4689 217.977 59.204 215.942 59.9505C215.092 60.2622 214.91 60.0993 214.678 61.233C214.447 62.3585 214.186 63.4535 213.808 64.5257C213.006 66.801 211.82 68.8383 210.702 70.9104C209.491 73.1534 208.219 75.3208 206.43 76.9933C204.771 78.5442 202.869 79.8059 200.975 80.9223C196.985 83.2743 192.546 84.5873 188.066 84.4602C183.289 84.3242 178.443 84.8512 173.709 83.904C168.862 82.934 164.133 81.3285 159.305 80.2516C157.137 79.7677 155.115 79.2401 153.143 78.0455C151.14 76.8338 149.143 75.5963 147.312 74.0512C146.05 77.5816 145.371 81.2617 143.562 84.5096C141.983 87.3441 140.078 90.0092 137.747 92.0418C135.471 94.0277 132.496 95.5129 129.629 95.6406C128.754 95.6793 127.409 95.2311 126.781 96.0007C126.467 96.3857 126.435 97.1509 126.31 97.6452C126.098 98.4867 125.791 99.3076 125.62 100.163C125.362 101.459 126.404 101.479 127.318 102.005C128.543 102.711 129.739 103.482 130.924 104.276C132.134 105.087 133.287 106.021 134.499 106.82C135.54 107.505 136.615 108.035 137.616 108.812C139.984 110.648 142.578 111.873 145.121 113.327C147.843 114.884 150.49 116.62 153.164 118.283C158.462 121.576 163.776 124.995 168.778 128.877C171.113 130.689 173.358 132.575 175.752 134.289C177.986 135.888 180.535 137.759 181.957 140.382C183.066 142.427 184.659 143.396 186.492 144.511C187.572 145.168 188.24 145.292 189.118 144.217C189.979 143.162 190.811 142.113 191.72 141.106C195.445 136.978 198.633 132.46 201.739 127.708C204.046 124.179 207.208 119.943 211.444 120.716C212.714 120.948 213.558 121.638 214.497 122.609C215.134 123.267 216.286 123.698 216.71 124.551C216.956 125.044 217.059 125.675 217.306 126.192C217.564 126.733 217.886 127.26 218.059 127.851C218.351 128.851 217.72 130.44 218.349 131.255C218.809 131.851 218.381 133.256 218.256 133.93C218.024 135.177 217.827 136.442 217.46 137.646C217.171 138.594 216.887 139.892 216.278 140.632C215.735 141.292 215.098 141.227 215.239 142.37C214.652 142.141 214.146 143.784 213.981 144.199C213.535 145.312 213.049 146.227 212.331 147.15C210.517 149.482 208.441 151.06 206.088 152.543C205.23 153.084 203.45 153.836 203.251 155.087C203.06 156.287 203.647 157.262 203.234 158.545C202.376 161.213 200.447 164.026 198.873 166.179C197.457 168.115 196.084 169.409 193.814 168.954C191.802 168.552 189.812 167.353 188.138 166.024C186.122 164.423 183.986 163.22 181.809 161.949C180.737 161.324 179.665 160.747 178.737 159.848C177.873 159.013 177.124 158.073 176.124 157.453C175.411 157.011 174.48 156.698 174.183 155.715C173.859 154.642 174.451 153.973 174.954 153.204C175.293 152.688 175.479 152.608 175.188 152.194C174.954 151.863 174.315 151.583 173.994 151.381C173.216 150.894 172.439 150.468 171.608 151.004C170.681 151.601 170.047 152.835 169.353 153.732C168.52 154.807 167.585 155.786 166.673 156.766C164.862 158.71 162.878 160.452 161.11 162.442C160.705 162.897 159.909 164.05 159.241 163.832C158.748 163.671 159.008 163.329 158.754 163.066C158.48 162.783 158.248 162.78 157.898 162.473C157.027 161.712 156.762 160.253 155.848 159.465C154.91 158.655 153.751 158.073 152.735 157.406C148.097 154.363 143.578 151.081 139.339 147.32C137.213 145.434 135.205 143.387 133.146 141.406C132.176 140.474 131.193 139.452 130.116 138.694C129.132 138.003 128.04 137.52 127.038 136.857C124.893 135.437 122.597 134.35 120.473 132.884C119.474 132.195 118.734 131.269 117.805 130.501C116.991 129.829 116.314 129.431 115.709 128.452C115.421 129.191 114.632 128.227 114.347 128C114.123 127.821 113.835 127.695 113.627 127.491C113.418 127.286 113.291 126.829 113.132 126.686C112.78 126.369 112.372 126.442 111.899 126.244C111.267 125.979 110.434 125.274 109.949 124.736C109.613 124.364 110.161 124.657 109.593 124.2C109.329 123.988 108.876 123.931 108.579 123.705C107.874 123.172 107.227 122.486 106.554 121.896C105.335 120.829 103.758 119.858 103.066 118.194C99.3486 121.758 95.7587 125.626 91.4899 128.293C87.3668 130.869 82.5977 132.038 78.1953 133.816C73.6654 135.644 69.0904 137.483 64.4845 139.033C62.2453 139.786 59.9363 140.327 57.6477 140.836C55.3001 141.359 52.9849 141.203 50.6293 141.498C49.4712 141.643 48.3118 141.596 47.1542 141.727C46.0881 141.848 45.0543 142.164 43.9957 142.328C43.0626 142.473 42.0101 142.351 41.1127 142.647C40.4543 142.864 39.5847 143.635 39.1024 142.632C38.7491 143.25 38.6369 142.958 38.1768 142.919C37.6861 142.877 37.5384 142.901 37.058 143.009C36.2768 143.183 35.4147 143.25 34.7516 142.534C34.4481 143.818 31.5079 142.65 31.1572 141.802C30.7623 143.161 27.1907 141.988 27.139 140.712C27.0954 139.632 27.7096 138.08 27.9632 137.065C28.377 135.409 28.8898 133.79 29.4257 132.184C29.9926 130.485 30.5738 128.792 31.157 127.1C31.4131 126.357 31.6552 125.602 31.9476 124.877C32.0911 124.521 32.4644 123.991 32.4583 123.58C32.4402 122.38 30.5976 122.294 29.8185 121.995C29.2292 121.768 28.631 121.53 28.0714 121.216C27.6652 120.988 27.1778 120.464 26.7282 120.392C25.6982 120.225 25.9315 121.586 25.8195 122.423C25.6758 123.499 25.1679 124.052 24.1917 124.06C23.0513 124.069 19.7992 121.779 19.1857 123.525C18.8981 124.342 18.9762 125.911 18.8708 126.789C18.6976 128.229 18.7663 129.662 18.9352 131.098C19.2126 133.462 20.1279 136.453 19.0975 138.72C17.0404 143.247 9.90723 140.518 7.63041 137.669C4.2774 133.473 4.37526 127.185 5.9819 122.104C6.7631 119.633 7.89481 116.985 9.37419 114.976C10.0314 114.083 11.2817 113.221 11.4986 111.995C11.6788 110.977 11.0013 110.04 11.1438 108.997C11.3132 107.759 12.2102 107.008 12.9789 106.258C13.7792 105.476 14.5578 104.625 15.4698 104.019C17.58 102.619 19.9733 103.464 22.0713 104.492C24.3656 105.617 26.5633 107.124 28.6127 108.765C29.6273 109.577 30.4875 110.308 31.6905 110.701C32.6128 111.002 33.5446 111.298 34.4712 111.581C35.3455 111.848 36.0825 112.047 36.6962 111.164C37.3716 110.193 37.5953 109.801 38.7642 109.759C40.009 109.715 41.2548 109.796 42.4985 109.851C42.7612 109.863 43.3578 109.768 43.565 110.023C43.7497 110.251 43.4822 110.726 43.6542 110.871C43.9256 111.098 45.4678 108.555 45.5998 110.614C45.684 109.614 46.5824 110.098 47.0832 110.23C47.2655 110.277 47.4473 110.334 47.6277 110.381C47.8234 110.304 47.9862 110.363 48.1149 110.556C48.3207 110.607 48.46 110.515 48.5327 110.281C50.709 110.244 52.9045 110.404 55.0863 110.391C57.6094 110.375 60.1468 110.346 62.6462 109.92C63.572 109.762 64.4984 109.544 65.4259 109.411C65.851 109.35 66.2076 109.403 66.6223 109.435C66.7736 109.469 66.9107 109.542 67.034 109.655C67.0972 109.51 67.1916 109.399 67.3167 109.324C68.9041 108.782 70.537 108.414 72.15 107.94C73.2791 107.608 74.2257 107.352 75.3498 107.259L75.5628 107.243L76.0144 107.399C76.0805 107.211 76.188 107.064 76.3369 106.959C76.7034 106.783 77.0146 106.716 77.4096 106.669C78.9817 106.481 80.5241 106.501 82.01 106.232C82.7927 106.091 85.6522 105.573 86.1795 106.479C86.5839 105.376 89.4956 106.878 90.3483 106.226C89.0252 104.119 88.4486 101.865 88.0741 99.3169C87.666 96.5414 87.4096 93.6218 88.0132 90.8573C88.5693 88.31 89.781 85.6955 91.437 83.9035C93.0385 82.1702 93.4141 80.097 94.4828 77.9581C96.709 73.5013 100.377 70.7786 104.463 69.1343C106.689 68.239 108.951 67.4939 111.195 66.6711C113.018 66.0029 114.545 65.0466 115.467 63.0025C107.704 63.0025 100.276 65.8134 93.1685 69.223C89.6328 70.9189 86.1127 72.6837 82.6205 74.4988C80.8428 75.4224 79.0849 76.4103 77.4265 77.603L76.9682 77.9327C76.4337 78.3187 75.9026 78.7137 75.4042 79.1588C75.2854 79.2651 74.6369 79.7067 74.5988 79.8542C74.3024 81.0011 75.9352 82.8456 76.3591 83.8293C76.9361 85.169 77.5013 86.7355 77.5724 88.2458C77.6568 90.052 76.6703 90.9559 75.15 90.5851C73.2907 90.1317 71.883 88.3227 70.4067 87.0648C70.0774 88.2191 70.5027 89.547 70.7332 90.6719C71.0494 92.2148 71.3637 93.7811 71.5885 95.3465C71.9063 97.5592 71.6805 100.056 69.7949 101.216C64.9898 104.17 62.5401 96.3753 61.5643 92.4815C60.9047 93.0368 60.9817 95.0716 60.8603 95.9224C60.6272 97.5595 60.3597 99.3172 59.737 100.821C59.26 101.972 58.4494 103.316 57.2563 103.44C55.9623 103.575 54.9192 102.276 54.3396 101.077C53.338 99.0063 53.1018 96.6974 53.0228 94.3762C53.0051 93.8648 53.1322 89.1298 52.6895 88.995C51.3877 91.718 50.6615 94.7459 49.1323 97.3428C47.7922 99.6187 45.7755 101.162 43.9635 98.5309C41.1574 94.4558 42.0553 88.5668 43.2049 83.982C43.8734 81.3158 44.7833 78.7708 46.01 76.3867C46.5186 75.3977 47.1342 74.6556 47.7658 73.7839C48.2866 73.0649 48.487 72.7274 48.2624 71.8988C48.1316 71.4157 48.0079 71.3982 48.1245 70.864C48.2085 70.4809 48.4602 70.0093 48.6039 69.6534C49.0151 68.6364 49.4468 67.6329 49.9504 66.6733C51.0271 64.6235 52.4931 62.9184 54.0337 61.3371L54.1885 61.1787L54.1811 61.1867C54.0818 61.2934 54.8026 60.6523 54.7877 60.6508L54.7838 60.6525L54.8028 60.6393C55.0687 60.4364 55.1699 59.7694 55.4724 60.3647L55.4944 60.4094C55.5417 59.5333 56.1735 59.0354 56.7155 58.5446C56.9173 58.3617 57.1191 58.1077 57.3642 57.9984C57.5348 57.9223 57.9314 57.997 58.0549 57.8907C58.2951 57.6844 58.4124 57.2758 58.6406 57.0327C58.8693 56.7897 59.1849 56.676 59.4451 56.4906C60.0828 56.0361 60.6688 55.4797 61.291 54.9952C62.6125 53.9659 63.9924 53.0384 65.4061 52.1934C68.3804 50.4151 71.5373 48.9842 74.6964 47.7223C77.4806 46.61 80.3665 45.5796 83.2262 44.7694C86.1614 43.9375 89.2463 44.1446 92.2441 43.8027C98.354 43.1054 104.803 43.246 110.91 43.9419C113.904 44.283 116.88 44.8163 119.832 45.4832C122.695 46.1297 125.673 46.8654 128.216 48.6132C128.758 48.9856 129.737 50.18 130.372 50.1361C130.907 50.0993 131.371 48.9472 131.622 48.4932C132.22 47.415 132.97 46.4241 133.478 45.2879C134.102 43.8886 134.422 42.3158 134.892 40.8434C132.713 41.1942 130.424 41.4216 128.333 40.4469C126.439 39.5642 125.163 37.8002 123.748 36.1713C122.258 34.4557 120.662 33.2931 118.53 33.1355C116.112 32.9564 113.931 33.9696 111.707 34.9138C107.007 36.9087 102.309 39.1006 97.4724 40.6053C95.1087 41.3408 92.6786 41.9214 90.2293 42.0521C88.9823 42.1183 87.7203 42.0529 86.487 42.3218C85.9756 42.433 85.8222 42.5261 85.4179 42.2625C85.4727 42.2985 84.9032 41.1928 84.7903 41.6231C84.6813 42.0378 84.8594 42.3619 84.5482 42.6745C84.1827 43.0414 83.3895 42.8629 82.966 42.8206C82.3318 42.7574 81.8263 42.5061 81.2157 42.3388C80.2717 42.0804 79.2138 42.2507 78.252 42.1095C77.805 42.0439 77.4806 41.9123 77.0786 41.7679C76.6573 41.6165 76.9288 41.6358 76.4948 41.5712C76.1104 41.5141 75.8928 41.5732 75.4275 41.3966C75.0114 41.2387 74.6268 41.1299 74.2013 41.014C73.8115 40.9083 73.497 40.7179 73.1345 40.5941C73.59 40.7498 72.5495 40.2683 72.5946 40.3965L72.5987 40.4047L72.595 40.4003C72.4821 40.2517 72.3513 39.9531 72.1276 39.9067L72.0816 39.9009C72.8174 41.2197 69.5827 39.8262 69.3684 39.7501C67.5809 39.1152 65.7498 37.6739 63.8818 37.5412C62.0583 37.4116 60.2896 38.8625 58.8215 39.9385C57.0486 41.2381 55.2836 42.5484 53.5175 43.8612C49.6136 46.7627 45.3862 49.358 41.005 51.1215C38.874 51.9791 36.6903 52.6671 34.5288 53.41C33.5542 53.7448 32.49 53.8824 31.5587 54.3627C30.9293 54.6873 30.022 55.6587 29.3859 54.7983C29.1297 55.5511 27.8858 55.5126 27.3584 55.536C27.2773 55.5395 27.4076 55.72 27.222 55.7049C26.9487 55.6823 26.8755 55.3726 26.6603 55.3077C26.223 55.1765 26.1776 55.3731 25.7443 55.5684C25.1814 55.8219 25.2886 55.6024 24.7909 55.5426C24.506 55.5082 24.2042 55.6909 23.9189 55.7013C23.8029 55.7057 23.6507 55.4802 23.483 55.4835C23.3216 55.4871 22.9433 55.712 22.7298 55.7494C22.1948 55.8433 21.5654 55.7809 21.026 55.7529C20.2542 55.7126 12.524 54.9079 13.0786 53.0211C12.1485 54.023 9.99097 52.3853 9.02134 51.8652C8.66026 51.6716 8.63697 51.4834 8.43349 51.2651C8.48971 51.0028 8.3935 50.8858 8.14486 50.9138C8.0917 50.9067 8.0383 50.8998 7.98537 50.8927C7.55937 50.6392 7.40764 50.645 7.06844 50.2003C6.61608 49.6068 5.78336 49.0702 5.54883 48.2968C5.48603 48.0892 5.55283 47.7308 5.48885 47.5677C5.40699 47.3584 5.19151 47.3825 5.14165 47.2128C5.12424 47.1535 5.20751 46.7643 5.20139 46.758C4.8102 46.3757 4.25882 46.557 3.80552 46.0981C2.55291 44.829 1.79711 42.2834 1.43673 40.4757C0.494153 35.7478 0.172355 30.9939 2.00176 26.522C2.89094 24.3477 3.9796 22.2797 5.18163 20.3234C5.51425 19.7824 5.86263 19.068 6.28699 18.6113C6.47753 18.4062 6.72688 18.3642 6.8198 18.2414C7.31567 17.5864 7.57278 16.7441 8.23731 16.1066C8.97711 15.3967 9.70657 14.667 10.5238 14.0798C11.2737 13.5407 12.2076 13.1927 12.8951 12.6885C13.0838 12.5501 13.0189 12.3318 13.2238 12.1673C13.4409 11.9929 13.7218 11.9794 13.9678 11.8945C14.2597 11.7943 14.6218 11.6095 14.9247 11.579C15.4905 11.5216 15.6803 11.7108 16.107 12.1799C16.107 10.3747 18.9543 10.1234 20.106 10.1201C20.6374 10.1185 23.3077 9.84026 23.2564 10.7905C23.8648 9.85179 25.7142 10.5502 26.5187 10.8317C27.484 11.1692 28.0947 11.9951 28.7141 12.8772C28.8289 12.5976 28.9439 12.3178 29.0589 12.0382C29.2346 12.1815 29.8288 12.4199 29.6374 12.7981C30.333 12.0816 29.9408 12.6718 30.5367 12.7992C30.7985 12.8552 31.0241 12.7423 31.2995 12.7042C31.3223 13.1288 31.1645 13.2664 30.9394 13.5624C31.479 13.5742 33.5528 13.3227 32.0179 14.1144C32.223 14.5429 33.1964 14.3924 33.5387 14.45C33.7201 14.4805 34.1719 14.4915 34.2802 14.6464C34.3514 14.7483 34.2261 15.0301 34.242 15.0551C34.3884 15.2866 34.0844 15.4055 34.3846 15.4725C34.4585 15.489 34.692 15.2152 34.745 15.2163C35.1343 15.2234 34.8612 15.1331 35.274 15.2025C35.4196 15.227 35.6991 15.4209 35.8861 15.4656C38.7056 16.1393 42.152 13.605 44.2002 11.643C46.648 9.29867 48.7787 6.79289 51.7215 5.27112C54.5683 3.79935 57.7397 2.63873 60.7652 1.79697C66.3602 0.240327 71.9164 0.213139 77.4211 2.36492ZM148.642 152.372C148.733 152.428 148.823 152.485 148.914 152.541C149.043 152.464 149.172 152.388 149.301 152.312C148.931 152.107 148.906 152.017 148.642 152.372ZM178.689 143.035C178.01 143.535 177.428 144.663 176.834 145.337C176.001 146.282 175.129 147.181 174.26 148.079C175.263 148.486 176.718 150.13 177.803 149.385C178.34 149.016 178.68 147.931 179.02 147.356C179.546 146.465 180.162 145.629 180.78 144.824C181.418 143.995 179.399 142.511 178.689 143.035ZM115.107 125.97C115.375 126.102 115.964 126.859 115.691 127.125C115.414 126.751 115.043 126.481 115.107 125.97ZM28.7868 113.984C28.2958 114.479 27.7423 115.513 27.4005 116.164C27.0155 116.898 27.0018 117.267 27.5899 117.757C28.7263 118.703 30.3772 118.98 31.6952 119.422C32.3988 119.657 33.2687 120.25 33.8664 119.501C34.4582 118.759 34.4596 117.378 34.7259 116.458C34.9416 115.714 35.1724 114.975 35.3963 114.234C34.1541 114.38 32.9047 114.39 31.6834 114.065C30.7968 113.83 29.5708 113.192 28.7868 113.984ZM50.244 74.3354C49.241 75.9258 48.3461 77.6104 47.5572 79.3574C46.2516 82.2491 45.2368 85.3192 44.5939 88.5023C44.1383 90.7573 43.4726 93.9277 44.513 96.091C46.7795 100.804 51.3797 87.1994 52.0819 85.7765C52.4999 84.9292 53.1486 84.0205 53.8673 85.1097C54.4568 86.0036 54.2648 87.4364 54.2921 88.4891C54.3735 91.6177 53.9995 95.3646 55.071 98.3084C55.4226 99.2746 56.3542 100.67 57.4056 100.231C58.3482 99.8374 58.8192 97.9421 59.1106 96.9657C60.0325 93.8769 60.6864 90.1015 60.7163 86.833C60.7222 86.1764 60.2176 81.8355 61.5187 82.7959C62.3698 83.4237 62.3349 86.4713 62.4175 87.4685C62.741 91.3645 63.4001 97.9808 67.5404 98.6364C68.4519 98.7808 69.4837 98.529 70.0174 97.5721C70.6808 96.3832 70.0136 94.7846 69.7812 93.535C69.3806 91.3807 68.9269 89.16 68.8869 86.9423C68.8624 85.5829 68.977 83.3229 70.6125 83.8474C72.5836 84.4794 73.4172 87.4897 75.6308 87.5905C75.6329 86.9846 75.3457 86.4908 75.1022 85.9847C74.3146 84.3487 72.8802 82.9477 72.3947 81.1379C72.2354 80.5441 72.401 79.6513 72.086 79.1564C71.7885 78.6892 71.1169 78.5695 70.6678 78.4637C67.6783 77.7588 64.7393 76.8044 61.7636 75.9917C58.5825 75.1233 55.6332 74.1846 52.6542 72.6554C51.3119 71.9664 51.0054 73.1284 50.244 74.3354ZM121.57 98.7374C122.009 98.9808 122.444 99.2342 122.888 99.4644C123.275 99.6651 123.426 99.5053 123.58 99.084C123.301 99.0167 121.732 98.3658 121.57 98.7374ZM102.733 45.9608C97.0447 46.1555 91.4833 46.2403 85.8768 47.5012C83.1954 48.1043 80.5669 48.803 77.9372 49.6593C76.8265 50.021 75.8472 50.3981 74.8785 51.1195C74.5184 51.3876 73.565 52.2293 73.4186 51.2673C72.9397 51.8031 72.0058 53.4388 71.2401 52.5301C71.1058 53.187 70.6874 53.1667 70.279 53.39C70.1353 53.4685 70.0569 53.7357 69.872 53.8327C69.8255 53.8568 69.8099 53.4814 69.7422 53.4751C69.4983 53.4526 69.3058 54.0524 69.1656 54.2053C68.8281 54.572 68.5119 54.7398 68.0645 54.873C67.8702 54.9488 67.671 54.9974 67.467 55.0188C67.2268 55.1339 67.0829 55.0512 67.0354 54.7708C66.7039 54.7771 66.4614 54.9178 66.1142 55.1012C66.8634 55.3017 65.603 55.5222 65.4355 55.5445C65.4148 56.1981 65.8933 55.784 66.2024 55.9194C66.0594 56.7397 64.7571 57.3659 64.2213 57.7682C64.1298 57.5408 64.0383 57.3134 63.9465 57.0863C63.7983 57.2535 63.6835 57.4461 63.6014 57.6638C63.5462 57.9275 63.3857 58.0187 63.1204 57.9374C62.872 58.1675 62.8348 58.061 62.6822 58.385C62.5243 58.7209 62.991 59.3746 62.3131 59.0931C62.3131 60.2086 61.4255 59.5325 61.581 59.243C60.9097 59.1672 60.6232 60.6019 60.6984 61.1616C60.3775 60.7901 60.1805 60.8371 59.8581 61.1273L59.8296 61.1532L59.8465 61.1392C60.0945 60.9433 59.8394 61.7447 59.8616 61.7353L59.8645 61.732C59.1828 62.7809 59.2471 61.6065 59.4581 60.9878C58.9961 61.2039 58.9085 61.7889 58.5378 62.119C58.2078 62.4129 58.1149 62.2764 57.8309 62.3203C57.3936 62.3879 57.5256 61.968 57.3339 62.5304C57.2527 62.7688 57.3758 63.1959 57.3758 63.4559C57.5654 63.1533 57.4936 62.6746 57.8361 62.5013C57.7338 63.3782 56.273 66.391 55.6588 64.6155C55.0613 65.1002 55.7197 65.6313 55.3276 66.2806C55.0359 65.9521 54.9661 65.4295 54.9987 64.9818C54.8155 65.2663 54.8214 65.6258 54.6779 65.9137C54.5283 66.2138 54.3716 66.238 54.2994 66.5643C54.19 67.0597 54.5638 66.8169 54.3664 67.3426C54.2674 67.6065 53.8035 67.8375 53.621 67.9861C52.9816 68.5062 52.3352 69.1088 52.9557 69.9733C53.9275 71.3265 56.488 71.4814 57.8632 71.7088C60.7956 72.1938 63.6534 72.9993 66.5426 73.7455C68.2823 74.1951 69.9864 74.6955 71.6927 75.295C72.9181 75.7251 74.6106 75.9926 75.2572 77.4737C78.6728 73.6612 83.2274 71.672 87.4427 69.3853C92.0086 66.9089 96.7236 64.6094 101.56 62.9545C105.849 61.4868 110.247 60.9298 114.678 60.424C115.845 60.2905 117.645 59.9491 118.686 60.7865C119.328 61.3033 119.358 62.0861 118.866 62.7776C118.6 63.1522 118.312 63.055 118.15 63.7229C118.023 64.2392 118.093 64.6303 118.208 65.1414C117.913 64.8712 117.384 65.0321 117.233 64.5556L117.218 64.5021L117.204 64.5588C117.002 65.4891 118.411 65.6178 117.979 66.7334L117.951 66.8016C117.801 67.1424 117.801 66.0491 117.669 66.0411C117.312 66.0194 117.019 66.9944 116.872 67.2646C117.537 67.2646 117.284 67.8293 116.927 68.1143C116.672 68.3178 116.243 68.3769 115.947 68.545C115.357 68.8811 114.838 69.3738 114.232 69.6943C113.569 70.0456 112.986 70.0673 112.328 70.2757C112.226 70.3079 111.822 70.4847 111.781 70.4888C111.725 70.4946 111.712 70.694 111.665 70.7017C111.244 70.7712 110.926 70.315 110.519 70.5009C110.363 70.5723 110.444 71.017 110.308 71.1178C110.159 71.229 109.736 71.087 109.555 71.0752C109.12 71.0461 109.054 70.9791 108.709 71.2144C108.116 71.6187 107.814 72.1652 107.015 72.2644C106.39 72.3421 105.988 72.2042 105.393 72.4778C104.791 72.7543 104.221 72.8156 103.635 73.0009C103.56 73.0246 103.541 73.3214 103.48 73.342C103.286 73.4091 103.054 73.358 102.869 73.4244C102.443 73.5774 102.098 73.7136 101.702 73.988C99.9642 75.1939 98.052 77.0041 96.6893 78.742C96.0671 79.5354 94.3318 81.5339 94.8977 82.6824C95.2607 83.4193 96.514 83.7774 97.139 84.0886C98.0713 84.553 99.0352 84.8911 99.9776 85.3211C101.149 85.8561 102.212 86.6872 103.408 87.153C104.561 87.6026 105.795 87.6913 106.987 87.9313C112.143 88.9694 117.194 90.6389 122.353 91.6743C125.182 92.2423 128.07 92.9201 130.944 92.3848C133.477 91.913 135.902 90.6052 137.924 88.778C141.605 85.4533 144.17 80.7325 145.46 75.5394C145.727 74.4667 145.783 71.7832 146.642 71.1268C147.358 70.5803 147.734 71.7849 148.198 72.2608C148.953 73.0339 150.06 73.333 150.968 73.774C153.216 74.8657 155.259 76.0181 157.635 76.7566C160.044 77.505 162.487 78.0919 164.923 78.709C169.86 79.96 174.572 81.1431 179.647 81.1623C184.668 81.181 189.709 81.4015 194.675 80.3217C199.018 79.3772 203.387 76.797 206.634 73.2937C208.274 71.5248 209.539 69.2906 210.828 67.1789C211.52 66.0463 212.163 64.8722 212.703 63.6312C213.1 62.7191 213.782 61.3984 213.852 60.3641C213.914 59.4399 213.452 59.5712 212.661 59.4767C211.444 59.3317 210.223 59.2397 209.006 59.0936C206.551 58.7998 204.105 58.4249 201.651 58.1203C199.147 57.8094 196.659 57.3878 194.227 56.6134C193.499 56.3818 192.962 56.0899 192.448 56.9149C192.117 57.4461 192.123 58.658 191.433 57.7682C190.104 59.7261 188.162 60.8985 186.348 62.1272C184.384 63.4568 182.476 64.9198 180.394 65.9933C175.91 68.3068 170.969 68.1234 166.21 67.3821C161.375 66.6288 156.475 65.6572 151.932 63.5089C149.847 62.5238 148.057 61.0249 146.188 59.5945C145.308 58.9209 144.395 58.3666 143.46 57.8053C142.406 57.1725 141.762 56.2344 140.81 55.503C140.167 57.9443 137.697 58.7835 135.747 58.8926C133.311 59.0288 131.342 57.671 129.864 55.4657C128.638 53.6349 128.4 50.8965 126.501 49.8944C124.335 48.7513 121.797 48.2971 119.479 47.7654C114.035 46.5172 108.28 45.7704 102.733 45.9608ZM131.61 64.7297C132.222 65.0494 134.003 67.4401 132.59 67.475C131.693 67.4972 131.165 66.1825 130.173 66.3816C129.729 66.4712 129.064 66.6502 128.954 67.0509C128.682 68.0487 129.94 68.6913 130.483 68.9684C131.32 69.3952 132.009 69.8245 132.466 70.8008C133.168 72.3009 133.352 74.7279 131.71 75.3988C130.49 75.8975 128.964 75.5106 127.76 75.1184C126.744 74.7877 125.969 73.562 126.436 72.344C126.569 71.9991 126.923 71.3907 127.336 71.6187C127.665 71.8 127.505 72.1433 127.606 72.4506C128.009 73.682 131.026 75.4375 131.72 73.5763C132.567 71.3067 129.347 70.6231 128.363 69.8643C127.093 68.8836 127.059 67.2058 128.029 65.9238C128.879 64.8003 130.375 64.0854 131.61 64.7297ZM136.931 72.4212C136.88 72.9559 136.817 73.5101 136.737 74.0399C136.669 74.5004 136.672 74.9843 136.219 75.1508C135.92 75.2606 135.629 74.8901 135.341 75.1362C135.022 75.4092 135.174 73.4239 135.189 73.3124C135.283 72.5719 135.455 71.0686 136.065 70.6094C137.096 69.8322 136.992 71.7692 136.931 72.4212ZM136.865 69.3181C135.77 70.1275 135.486 67.8321 135.922 67.0856C137.003 65.2324 138.591 68.043 136.865 69.3181ZM114.622 68.1901C114.935 68.4615 114.831 68.3121 114.831 69.0344C114.467 69.053 114.523 68.4711 114.622 68.1901ZM115.859 67.5653C115.753 67.852 116.227 68.1962 116.38 68.2409C116.389 68.1484 116.158 66.7521 115.859 67.5653ZM56.4548 63.3716C56.1637 63.8642 56.3282 64.1662 56.7911 63.9723L56.8293 63.9555L56.4548 63.3716ZM62.3053 58.6358L62.0282 58.7726C61.8974 58.9184 61.7671 59.064 61.6365 59.2095C62.0174 59.123 62.2818 59.1897 62.3053 58.6358ZM63.8402 57.9436C63.6494 57.4894 62.9938 58.3905 62.9792 58.6014C63.1321 58.4957 64.0622 58.4726 63.8402 57.9436ZM64.4556 56.3385C64.2963 56.6002 64.3288 56.81 64.553 56.9679C64.739 56.6776 64.8804 56.3604 64.9766 56.0158C64.7282 55.8051 64.544 56.0902 64.4556 56.3385ZM189.98 23.911C189.5 24.1626 189.751 25.0288 189.798 25.4981C190.021 27.7337 190.375 29.947 190.595 32.182C190.903 35.3254 190.947 38.5068 191.452 41.6223C191.913 44.4634 192.69 47.2224 193.101 50.0767C193.375 51.9863 192.851 54.1927 194.802 54.7719C196.556 55.2929 198.557 55.3212 200.355 55.5502C202.672 55.8452 204.993 55.9902 207.32 56.1218C208.422 56.1838 209.557 56.2 210.648 56.395C211.29 56.5098 212.09 57.0072 212.584 56.3129C213.065 55.6379 213.066 53.9197 213.216 53.0579C213.415 51.9201 213.592 50.7762 213.69 49.6197C213.909 47.0014 213.586 44.4085 213.289 41.8159C212.969 39.0212 212.723 36.2147 212.392 33.4228C212.179 31.6231 212.203 28.7169 211.143 27.2643C210.175 30.6366 209.913 34.217 209.865 37.753C209.854 38.5121 209.429 42.8747 208.298 40.7479C207.984 40.1563 207.979 39.8185 207.49 39.3184C206.986 38.8029 206.81 38.3907 206.64 37.6102C206.331 36.1963 206.282 34.953 205.614 33.6817C204.256 31.0941 203.705 27.8905 201.682 25.8016C201.662 28.2297 201.361 30.8557 201.748 33.2541C201.991 34.7613 202.988 36.9307 202.166 38.4217C201.757 39.1654 201.52 38.9435 201.038 38.57C200.729 38.3305 200.776 38.219 200.388 37.9793C200.018 37.7508 199.727 37.7615 199.377 37.4423C198.137 36.313 198.039 34.3508 197.634 32.726C196.739 29.1393 193.647 26.924 191.279 24.7055C191.021 24.4641 190.376 23.7036 189.98 23.911ZM143.252 31.1776C141.436 32.024 139.564 32.3465 137.635 31.8683C137.637 32.3632 138.249 33.1674 137.776 33.4519C137.664 33.5197 137.021 33.1948 136.895 33.1569C136.2 32.9463 135.262 32.584 134.535 32.7568C133.765 32.9397 133.792 33.5216 134.295 34.1808C135.001 35.106 136.773 35.1436 136.793 36.6789C136.801 37.3427 136.451 38.1743 136.376 38.8589C136.264 39.8828 136.141 40.8984 135.935 41.9038C135.581 43.6324 135.008 45.2766 134.325 46.8621C133.736 48.2279 133.02 49.651 131.925 50.5436C131.21 51.1253 131.485 50.8627 131.626 51.7202C131.719 52.2944 131.704 52.722 131.069 52.5803C130.947 52.5367 130.826 52.4933 130.704 52.4496C132.194 55.2992 135.96 57.0954 138.539 55.1938C137.452 54.1705 138.928 52.3864 139.551 51.6306C140.484 50.4983 141.462 49.1954 142.463 48.1617C143.995 46.5792 146 47.3493 147.813 46.6836C149.647 46.0099 150.982 44.4898 152.168 42.7909C153.224 41.2779 154.625 39.4263 154.768 37.3784C154.796 36.9774 154.629 36.5072 154.689 36.1279C154.751 35.7412 154.952 35.691 155.056 35.4378C155.271 34.9168 155.323 34.3804 155.357 33.7839C155.468 31.8373 154.938 31.5316 153.372 31.0288C152.46 30.7354 151.535 30.5053 150.621 30.2188C149.748 29.9456 148.97 29.4197 148.11 29.1263C146.3 28.5087 144.846 30.4344 143.252 31.1776ZM147.918 43.4104C149.358 44.4304 147.088 45.0835 146.25 44.6325C145.118 44.0234 147.114 42.8408 147.918 43.4104ZM150.63 34.9294C151.938 36.7527 153.391 40.4587 150.528 41.2087C149.644 41.4402 148.278 41.8143 147.389 41.5306C146.12 41.125 146.451 39.1915 147.717 39.1066C148.467 39.0564 150.188 39.749 150.634 38.732C150.875 38.1806 150.326 37.3042 150.242 36.7538C150.135 36.0455 150.233 35.4795 150.63 34.9294ZM72.5987 40.4047L72.5998 40.4067C72.6044 40.4142 72.6117 40.4231 72.6219 40.4337L72.627 40.4385L72.6173 40.4278L72.5987 40.4047ZM153.22 35.5812C154.127 35.5788 153.677 37.83 153.227 38.2145C152.418 38.9043 152.073 35.584 153.22 35.5812ZM147.235 37.2786C146.182 37.4277 146.419 34.4847 147.379 34.3943C148.639 34.2754 148.453 37.1064 147.235 37.2786ZM156.347 32.394C156.221 32.6939 156.318 35.6138 156.62 35.669C156.701 34.9558 156.656 34.2387 156.647 33.5223L156.646 33.3413C156.653 33.3525 156.703 31.5478 156.347 32.394Z" fill="black"/>
<rect x="126" y="62" width="15" height="18" fill="#0000EE"/>
<rect x="559" y="62" width="15" height="18" fill="#0000EE"/>
<rect x="341" y="60" width="17" height="18" fill="white"/>
<path d="M357.483 66.4528C357.808 66.3183 358.185 66.4716 358.323 66.7953L359.678 69.9561C359.817 70.2798 359.665 70.6512 359.34 70.7857L350.034 74.6329C349.708 74.7674 349.332 74.6141 349.193 74.2905L347.838 71.1296C347.7 70.806 347.851 70.4346 348.176 70.3L357.483 66.4528Z" fill="#0000EE"/>
<path d="M342.638 65.4418C342.964 65.3073 343.34 65.4606 343.479 65.7842L344.834 68.9451C344.972 69.2687 344.821 69.6402 344.495 69.7747L341.317 71.0885C340.992 71.223 340.616 71.0697 340.477 70.746L339.122 67.5852C338.983 67.2615 339.135 66.8901 339.46 66.7556L342.638 65.4418Z" fill="#0000EE"/>
<path d="M345.256 71.4647C345.582 71.3302 345.958 71.4835 346.096 71.8072L347.451 74.968C347.59 75.2916 347.439 75.6631 347.113 75.7976L343.935 77.1114C343.61 77.2459 343.233 77.0926 343.095 76.7689L341.74 73.6081C341.601 73.2844 341.753 72.913 342.078 72.7785L345.256 71.4647Z" fill="#0000EE"/>
</g>
<defs>
<clipPath id="clip0_461_905">
<rect width="653" height="170" fill="white"/>
</clipPath>
</defs>
</svg>
