<svg width="255" height="165" viewBox="0 0 255 165" fill="none" xmlns="http://www.w3.org/2000/svg">
<path d="M245.29 84.3299C244.66 81.3299 244.17 78.9399 243.94 77.1999C244.45 73.4699 244.58 69.4599 242.08 67.1999C241.699 65.6139 241.405 64.0079 241.2 62.3899C239.31 46.5799 233.44 18.2199 231.01 6.7699C230.13 2.7439 226.212 0.144886 222.16 0.899886C216.16 2.03989 208.16 3.64989 203.84 4.80989C192.93 7.72989 183.35 10.5299 174.57 13.3499C168.2 15.3499 161.39 17.0599 154.81 18.6799C149.7 19.9299 144.42 21.2199 139.54 22.6799L137.27 22.9899C135.89 22.7699 134.51 22.5899 133.16 22.3999C130.768 22.1239 128.391 21.7239 126.04 21.1999C114.57 18.1999 102.6 17.1099 91.04 16.0099C86.67 15.5999 82.16 15.1699 77.74 14.6499C75.95 14.4399 74.07 14.0599 72.25 13.6499C65.32 12.2499 57.47 10.6499 53 18.6499C50.751 22.7789 48.871 27.0989 47.38 31.5599C43.38 32.2899 24.46 34.1999 21.38 33.9899C21.065 33.8579 20.72 33.8099 20.38 33.8499C19.287 33.9999 18.522 35.0059 18.67 36.0999C18.82 37.2199 18.94 38.7099 19.06 40.2799C19.208 43.5149 19.623 46.7329 20.3 49.8999H19.58C18.555 49.9219 17.712 50.7169 17.63 51.7399C17.298 57.3409 17.59 62.9619 18.5 68.4999L17.83 68.5499C17.654 68.5629 17.479 68.5959 17.31 68.6499C15.626 69.1409 13.892 69.4429 12.14 69.5499C10.237 69.7019 8.34898 70.0199 6.49998 70.4999C5.67098 70.7359 5.08598 71.4779 5.04998 72.3399C4.79998 78.2099 5.71998 84.2699 6.59998 90.1299C6.81998 91.6199 7.04998 93.1299 7.24998 94.5699C8.24998 101.57 8.73998 108.8 9.24998 115.8C9.57998 120.27 9.90998 124.9 10.36 129.43C11.24 138.24 11.77 153.22 11.96 159.25C12.068 162.039 14.359 164.246 17.15 164.25H17.66C28.26 163.18 54.66 160.59 70.81 159.52L74.91 159.24C84.21 158.57 92.99 157.94 102.11 159.94C106.85 160.94 111.64 160.79 116.27 160.61C119.407 160.415 122.553 160.415 125.69 160.61C131.69 161.13 137.69 160.54 143.58 159.98C147.35 159.62 151.26 159.24 155.03 159.18C161.27 159.07 167.57 159.04 173.66 159.01C177.52 159.01 181.37 159.01 185.25 158.93C186.09 158.93 187.41 159.02 188.96 159.12C196.58 159.65 202.13 159.82 204.12 157.12C204.492 156.621 204.61 155.978 204.44 155.38C204.155 154.299 203.974 153.194 203.9 152.08L207.81 152.24C212.535 152.3 217.25 152.691 221.92 153.41C222.568 153.534 223.209 153.69 223.84 153.88C225.94 154.48 227.47 154.68 229.62 152.05C231.33 149.97 232.18 145.78 232.81 142.72C232.94 142.11 233.05 141.56 233.15 141.1C234.95 133.32 236.61 125.23 238.09 117.04L239.49 116.18C241.03 116.18 244.38 116.24 248.04 116.04C248.585 116.011 249.094 115.762 249.45 115.35C249.803 114.937 249.972 114.399 249.92 113.86C248.956 103.934 247.41 94.0739 245.29 84.3299Z" fill="#BABAFF"/>
<path fill-rule="evenodd" clip-rule="evenodd" d="M28.1268 69.9129C28.4978 69.3959 29.0938 69.0859 29.7308 69.0789C33.9908 69.0289 38.7209 68.6789 40.7009 65.0889C42.0709 62.7289 41.4908 58.7189 39.4908 57.2689C38.8078 56.7719 38.5119 55.8989 38.7509 55.0889C38.9939 54.2819 39.7179 53.7139 40.5609 53.6689C59.5809 52.5789 78.7408 48.1189 97.2608 43.7989C107.351 41.4489 117.791 39.0189 128.071 37.1689C131.985 36.4779 135.939 35.6969 139.835 34.9269C141.124 34.6719 142.407 34.4179 143.681 34.1689C152.081 32.4789 160.771 30.7589 169.411 29.4789C172.516 29.0199 175.666 28.5099 178.748 28.0099C179.288 27.9229 179.825 27.8359 180.361 27.7489C183.571 27.1989 186.791 26.6889 190.011 26.1989C192.061 25.8889 194.341 25.7589 195.721 27.1489C196.53 28.0019 196.856 29.2039 196.591 30.3489C196.37 31.4349 196.035 32.4939 195.591 33.5089C194.961 34.8399 194.555 36.2659 194.391 37.7289C194.341 41.2589 195.861 44.2089 198.341 45.5489C200.821 46.8889 203.881 46.5789 206.731 44.6689C207.311 44.2809 208.052 44.2229 208.685 44.5179C209.319 44.8119 209.753 45.4149 209.831 46.1089C210.661 53.1889 211.691 60.0189 212.831 65.8789C213.305 68.1229 214.033 70.5229 214.803 73.0589L214.831 73.1489L214.861 73.2509C216.592 78.9499 218.385 84.8529 217.391 90.4389C217.211 91.4949 216.233 92.2219 215.171 92.0889C213.111 91.8189 209.691 92.4389 208.591 93.6689C207.491 94.8989 207.711 95.5489 208.591 97.4289C209.39 98.8289 209.766 100.43 209.671 102.039C209.161 106.029 202.141 107.729 189.381 109.459C188.501 109.569 187.761 109.669 187.211 109.759C182.948 110.5 178.731 111.485 174.581 112.709C170.821 113.749 166.941 114.809 163.001 115.499C154.728 116.811 146.548 118.652 138.511 121.009C125.781 124.949 112.521 127.659 99.7008 130.279C99.3148 130.359 98.9279 130.438 98.5399 130.518C93.7529 131.503 88.8308 132.516 84.0208 133.579C76.5908 135.229 69.7208 136.719 63.0208 138.139C61.8008 138.399 60.5109 138.789 59.1409 139.219C56.5879 140.146 53.9118 140.692 51.2008 140.839C50.6658 140.837 50.1549 140.621 49.7809 140.239C49.4039 139.86 49.1948 139.344 49.2008 138.809V138.509V138.496C49.2608 134.571 49.3169 130.867 46.4209 128.689C44.4809 127.219 39.9509 126.619 38.2509 128.619C37.6959 129.283 36.7779 129.514 35.9749 129.193C35.1719 128.873 34.6658 128.072 34.7208 127.209C35.0608 121.549 34.3008 116.089 33.4908 110.309C33.1708 108.039 32.8408 105.669 32.5908 103.309C32.3608 101.129 32.1509 98.9189 31.9509 96.6989L31.9469 96.6569C31.1679 88.1909 30.3658 79.4769 27.8508 71.6989C27.6528 71.0939 27.7558 70.4309 28.1268 69.9129ZM44.5609 57.4689C45.9569 60.5759 45.8348 64.1549 44.2308 67.1589C41.5008 71.7989 36.3508 72.7789 32.3508 72.9989C34.4208 80.4989 35.1608 88.5089 35.8708 96.2889C35.9028 96.6329 35.9348 96.9729 35.9668 97.3109C36.1408 99.1429 36.3078 100.907 36.5108 102.849C36.7278 104.932 37.0188 107.04 37.3018 109.09C37.3318 109.304 37.3609 109.517 37.3909 109.729C38.1349 114.363 38.5828 119.039 38.7308 123.729C39.7058 123.451 40.7158 123.313 41.7308 123.319C44.2468 123.306 46.7069 124.063 48.7809 125.489C52.6509 128.409 53.1709 132.759 53.1709 136.649C54.7889 136.332 56.3858 135.911 57.9508 135.389C59.3408 134.959 60.7809 134.519 62.1709 134.229C68.8809 132.809 75.7409 131.319 83.1709 129.679C88.4009 128.519 93.7409 127.419 98.9109 126.369L99.0869 126.333C111.762 123.735 124.849 121.051 137.341 117.189C145.525 114.795 153.855 112.935 162.281 111.619C165.942 110.977 169.471 110.012 173.199 108.992L173.501 108.909C177.798 107.656 182.166 106.654 186.581 105.909L188.821 105.589C201.421 103.889 204.971 102.439 205.691 101.509C205.613 100.705 205.36 99.9269 204.951 99.2289L204.943 99.2119C204.042 97.2819 202.689 94.3799 205.541 91.1289C207.421 88.9589 211.031 88.2389 213.591 88.1289C213.819 83.8609 212.375 79.0869 210.971 74.4489L210.951 74.3789C210.141 71.7089 209.381 69.1789 208.891 66.7089C207.891 61.5189 206.971 55.6689 206.221 49.5189C203.074 50.8619 199.49 50.7189 196.461 49.1289C192.661 47.0489 190.401 42.7489 190.461 37.7489C190.611 35.7849 191.116 33.8639 191.951 32.0789C192.231 31.4269 192.474 30.7589 192.681 30.0789C192.011 30.0629 191.341 30.1129 190.681 30.2289C188.909 30.5229 187.134 30.8009 185.359 31.0789C183.929 31.3029 182.499 31.5269 181.071 31.7589C177.481 32.3489 173.751 32.9589 170.071 33.5089C161.541 34.7689 152.891 36.4989 144.541 38.1689C143.788 38.3159 143.032 38.4639 142.273 38.6119C137.855 39.4749 133.332 40.3589 128.861 41.1689C118.681 42.9989 108.251 45.4189 98.2509 47.7589L98.1108 47.7919C80.6548 51.8519 62.6318 56.0429 44.5609 57.4689Z" fill="#0000EE"/>
<path fill-rule="evenodd" clip-rule="evenodd" d="M107.35 111.37C111.35 113.95 116.24 115.01 120.59 115.94C121.66 116.169 122.742 116.335 123.83 116.44C124.78 116.53 125.75 116.58 126.73 116.58C134.974 116.384 142.975 113.758 149.73 109.03C158.57 102.94 164.13 93.2699 164.59 83.1699C164.97 74.7299 163.5 67.6799 159.96 60.9799C155.35 52.2499 143.4 47.7999 133.76 46.5399C115.76 44.1999 95.6599 59.4499 92.3599 77.9299C90.0199 91.0099 95.7699 103.82 107.35 111.37ZM124.22 112.5C123.283 112.409 122.352 112.265 121.43 112.07C119.58 111.67 117.7 111.26 115.89 110.75C115.924 110.695 115.954 110.638 115.98 110.58C117.215 107.04 118.82 103.641 120.77 100.44C121.005 101.429 121.491 102.342 122.18 103.09C123.65 104.598 125.786 105.257 127.85 104.84C128.8 107.771 130.76 110.269 133.38 111.89C130.376 112.557 127.287 112.763 124.22 112.5ZM121.89 68.7299C120.863 69.4039 120.144 70.4569 119.89 71.6599L119.9 71.6999C120.79 72.0759 121.283 73.0349 121.072 73.9779C120.861 74.9209 120.006 75.5779 119.04 75.5399C117.8 75.4899 116.29 75.6799 116.09 76.8299C115.971 78.0429 116.568 79.2139 117.62 79.8299C118.17 80.0099 118.87 78.9999 119.31 78.0899C119.641 77.3949 120.341 76.9519 121.11 76.9499H121.33C122.179 77.0439 122.874 77.6669 123.06 78.4999C123.73 81.4599 125.37 86.3499 128.65 85.8999C129.915 85.7999 130.98 84.9149 131.31 83.6899C132.65 79.6599 129.89 72.5199 127.89 70.5199C124.89 67.5599 123.24 67.9099 121.89 68.7299ZM142.08 94.9199C142.558 95.1219 142.801 95.6559 142.64 96.1499C142.545 96.6089 142.103 96.9099 141.64 96.8299C140.944 96.7899 140.277 97.1159 139.88 97.6899C139.466 98.2759 139.397 99.0389 139.7 99.6899C141.07 102.76 140.57 103.98 138.87 105.69C138.36 99.1899 136.65 94.1999 133.75 90.7999C136.246 90.8079 138.724 91.2169 141.09 92.0099L141.37 92.1099C141.327 92.1639 141.287 92.2209 141.25 92.2799C140.801 93.2299 141.163 94.3659 142.08 94.8799V94.9199ZM129.44 92.0499C129.302 91.9299 129.181 91.7919 129.08 91.6399L129.12 91.5999C127.597 92.3799 126.223 93.4229 125.06 94.6799C125.32 95.2129 125.32 95.8359 125.06 96.3699C124.32 97.9499 124.33 99.6399 125.06 100.37C125.79 101.1 127.11 101.13 128.79 100.44C129.431 100.178 130.162 100.267 130.722 100.674C131.282 101.081 131.592 101.749 131.54 102.44C131.38 104.46 133 106.68 135 108.17C134.77 100.39 132.9 94.9599 129.44 92.0499ZM147.5 105.74C145.298 107.248 142.954 108.538 140.5 109.59C142.89 107.42 145.5 104.97 144.22 100.18C146.552 98.8639 147.433 95.9459 146.22 93.5599C149.71 94.7499 153.51 96.2699 155.22 98.2299C153.094 101.155 150.483 103.695 147.5 105.74ZM133.24 50.5099C117.21 48.4099 99.2499 62.0799 96.2999 78.6299C94.2499 90.0999 99.3199 101.36 109.56 108.02C110.392 108.558 111.269 109.023 112.18 109.41V109.25C114.16 103.44 118.87 93.7399 125.26 89.2499C123.5 88.4299 121.65 86.6399 120.26 83.0499C119.119 83.7969 117.703 83.9949 116.4 83.5899C113.58 82.6899 111.59 79.1699 112.14 76.0599C112.495 74.0629 113.946 72.4369 115.89 71.8599C116.037 69.1529 117.502 66.6899 119.81 65.2699C123.31 63.1499 126.97 63.9499 130.7 67.6399C133.7 70.6099 136.94 79.3699 135.09 84.9199C134.886 85.5389 134.604 86.1309 134.25 86.6799C137.045 86.7299 139.815 87.2159 142.46 88.1199C142.981 88.3069 143.558 88.4949 144.171 88.6939C144.406 88.7709 144.646 88.8489 144.89 88.9299L144.916 88.9379C149.141 90.3159 154.257 91.9849 157.3 94.7399C159.259 91.1169 160.383 87.1019 160.59 82.9899C161.091 76.0199 159.648 69.0479 156.42 62.8499C152.5 55.4999 141.5 51.5799 133.24 50.5099Z" fill="#0000EE"/>
<path d="M49.2108 103.5C50.1218 104.124 51.3668 103.891 51.9908 102.98C52.9908 101.55 57.3108 98.6399 63.5108 95.1799C62.3938 97.0359 61.7828 99.1529 61.7408 101.32C61.7558 102.019 62.1348 102.66 62.7408 103.01C63.3698 103.348 64.1328 103.326 64.7408 102.95C66.0648 102.103 67.3368 101.178 68.5508 100.18C69.9108 99.0459 71.3588 98.0229 72.8808 97.1199C72.7808 97.5099 72.6708 97.9099 72.5708 98.3099L72.3308 99.1799C72.0908 100.078 72.5018 101.024 73.3238 101.461C74.1448 101.898 75.1588 101.711 75.7708 101.01C76.1568 100.624 76.6208 100.324 77.1308 100.13C77.6348 99.8889 78.1228 99.6149 78.5908 99.3099C79.3588 98.7969 79.6758 97.8239 79.3568 96.9569C79.0388 96.0899 78.1678 95.5539 77.2508 95.6599C77.3108 95.1999 77.3508 94.7199 77.3708 94.2299C77.3888 93.6459 77.1518 93.0829 76.7208 92.6899C76.2888 92.2989 75.7078 92.1169 75.1308 92.1899C72.3608 92.5299 69.9608 94.0599 67.6808 95.7899C68.5568 94.3089 69.2578 92.7319 69.7708 91.0899C69.9788 90.3239 69.7138 89.5069 69.0968 89.0089C68.4788 88.5109 67.6248 88.4249 66.9208 88.7899C59.7808 92.4999 50.8108 97.5699 48.6508 100.72C48.3548 101.162 48.2478 101.704 48.3528 102.226C48.4578 102.748 48.7668 103.206 49.2108 103.5Z" fill="#0000EE"/>
<path d="M179.22 71.6498C179.484 71.6478 179.745 71.5978 179.99 71.4998C183.99 69.8098 188.27 68.2498 192.39 66.7498L194.49 65.9798C195.528 65.5988 196.061 64.4478 195.68 63.4098C195.299 62.3718 194.148 61.8388 193.11 62.2198L191.02 62.9898C186.85 64.5098 182.55 66.0798 178.44 67.8098C177.566 68.1818 177.075 69.1168 177.264 70.0478C177.453 70.9788 178.27 71.6478 179.22 71.6498Z" fill="#0000EE"/>
<path d="M186.92 71.299C184.87 72.19 182.741 72.886 180.56 73.379C179.456 73.429 178.601 74.365 178.65 75.469C178.7 76.574 179.636 77.429 180.74 77.379H180.92C182.75 77.209 185.61 76.099 188.36 75.039C189.858 74.415 191.391 73.8769 192.95 73.4289C193.839 73.7199 194.81 73.356 195.289 72.553C195.768 71.751 195.628 70.723 194.95 70.079C193.55 68.719 191.61 69.499 186.92 71.299Z" fill="#0000EE"/>
<path d="M188.57 77.7499C187.064 78.3449 185.521 78.8429 183.95 79.2399C182.97 79.4859 182.327 80.4239 182.452 81.4269C182.577 82.4299 183.43 83.1819 184.44 83.1799C184.609 83.1799 184.777 83.1599 184.94 83.1199C186.669 82.6779 188.369 82.1299 190.03 81.4799C190.697 81.2189 191.173 80.6229 191.281 79.9149C191.388 79.2079 191.11 78.4969 190.551 78.0499C189.992 77.6039 189.237 77.4889 188.57 77.7499Z" fill="#0000EE"/>
<path fill-rule="evenodd" clip-rule="evenodd" d="M233.42 64.9099C236.28 65.1099 240.01 65.5999 241.68 66.8599C245.26 69.5499 244.66 75.4999 244.16 80.1199C244.136 80.3609 244.109 80.5989 244.083 80.8309V80.8319C244.004 81.5429 243.93 82.2069 243.93 82.7799V82.9599L243.9 83.5629C243.363 94.1899 242.893 103.493 240.93 114.29C240.759 115.256 239.911 115.955 238.93 115.94C238.814 115.954 238.696 115.954 238.58 115.94C238.058 115.847 237.593 115.551 237.289 115.115C236.986 114.68 236.867 114.142 236.96 113.62C238.894 102.835 239.357 93.6109 239.895 82.9059L239.9 82.7999V82.6199C239.94 81.7499 240.04 80.7499 240.15 79.7499L240.151 79.7379C240.471 76.5469 241.008 71.1979 239.23 69.8699C238.64 69.4199 236.11 68.9199 232.89 68.6999C232.822 69.2889 232.751 69.8749 232.68 70.4599L232.679 70.4639V70.4689C232.615 70.9929 232.551 71.5159 232.49 72.0399C232.322 73.4729 232.17 74.9839 232.012 76.5449L231.95 77.1599L231.941 77.2529C231.203 84.6199 230.37 92.9449 227.86 99.0099C227.824 99.0719 227.784 99.1319 227.74 99.1899C227.91 100.14 228.06 101.08 228.18 102.02C228.91 107.95 227.57 109.95 223.57 111.5C222.989 114.66 222.228 117.786 221.29 120.86C220.137 124.488 219.314 128.213 218.83 131.99C218.741 132.99 217.923 133.768 216.92 133.81H216.11C212.802 133.674 209.528 133.086 206.38 132.06C204.199 131.39 201.969 130.888 199.71 130.56C197.61 130.32 195.49 130.24 193.25 130.17C193.172 131.215 192.299 132.023 191.25 132.02H191.19C187.58 131.92 183.42 133.16 179.42 134.36L179.208 134.422C177.963 134.79 176.755 135.147 175.6 135.46C166.1 137.98 156.83 140.4 147.6 142.46C146.98 142.6 146.35 142.73 145.73 142.85L152.96 144.08C160.41 145.4 168.11 146.73 173.28 147.08C178.2 147.42 183.83 148.03 189.28 148.63C193.77 149.13 198.02 149.59 201.91 149.92C203.015 149.964 203.874 150.895 203.83 152C203.786 153.104 202.855 153.964 201.75 153.92H201.58C198.39 153.685 194.86 153.295 191.344 152.905H191.342L191.324 152.903C190.494 152.811 189.664 152.719 188.84 152.63C183.44 152.03 177.85 151.42 173.01 151.09C167.65 150.74 159.84 149.4 152.29 148.09L152.171 148.069H152.169C143.937 146.655 135.457 145.199 130.83 145.15L129.06 145.36L128.836 145.386H128.835C123.419 146.017 117.944 146.655 112.43 147.79C106.84 148.94 101.07 149.75 95.4801 150.53C94.7431 150.64 94.0021 150.749 93.2571 150.86H93.2541C89.7371 151.38 86.1521 151.911 82.6701 152.53C81.4301 152.75 80.1301 153.05 78.8801 153.34C76.5001 153.977 74.0671 154.392 71.6101 154.58H71.5201C70.6111 154.577 69.8181 153.96 69.5901 153.08L69.4101 152.39C68.9691 150.855 68.6351 149.291 68.4101 147.71C63.9901 148.53 59.5401 149.1 55.2101 149.64C50.5701 150.22 45.7701 150.82 41.1401 151.73C39.0451 152.184 36.9761 152.748 34.9401 153.42L34.6191 153.519C32.7401 154.098 30.8061 154.694 28.8101 155.13C27.7741 155.354 26.7441 154.731 26.4601 153.71L26.3101 153.14C25.9351 151.64 25.3521 150.199 24.5801 148.86C24.4181 148.552 24.3391 148.207 24.3501 147.86C24.7291 136.434 23.0571 124.72 21.4411 113.393L21.4301 113.32C20.2901 105.37 19.1201 97.1499 18.6401 89.0199C18.3101 84.8469 17.7591 80.6939 16.9901 76.5799C16.6201 74.5799 16.2701 72.5799 15.9901 70.5799C15.8331 69.4749 16.6011 68.4519 17.7051 68.2949C18.8101 68.1369 19.8331 68.9049 19.9901 70.0099C20.1781 71.2549 20.3871 72.5339 20.5981 73.8249C20.7131 74.5239 20.8281 75.2269 20.9401 75.9299C21.7381 80.1829 22.3051 84.4759 22.6401 88.7899C23.1101 96.7899 24.2701 104.93 25.4001 112.79C27.0501 124.14 28.7301 135.87 28.4001 147.5C28.9581 148.588 29.4231 149.723 29.7901 150.89C31.0021 150.58 32.1821 150.216 33.3381 149.859H33.3391L33.7901 149.72C35.9631 149 38.1731 148.399 40.4101 147.92C45.1781 146.99 50.0461 146.38 54.7541 145.79H54.7571H54.7591C59.7491 145.17 64.9401 144.49 69.9401 143.49C74.3501 142.58 78.8001 141.45 83.0901 140.36C90.9401 138.36 99.0501 136.3 107.29 135.5C115.019 134.566 122.683 133.16 130.24 131.29L130.279 131.281C138.227 129.504 146.434 127.669 154.79 126.95C160.437 126.377 166.002 125.173 171.38 123.36C171.854 122.857 172.553 122.634 173.23 122.77C175.403 122.049 177.586 121.288 179.799 120.518L179.88 120.49C184.41 118.9 189.1 117.26 193.93 115.97C202.109 113.79 210.356 111.437 218.348 109.156L218.79 109.03L219.22 108.9L219.225 108.898C224.78 107.32 224.89 107.288 224.32 102.68C224.102 100.928 223.753 99.1429 223.383 97.2569L223.27 96.6799C222.63 93.8049 222.176 90.8929 221.91 87.9599C221.41 80.8169 220.488 73.4909 219.595 66.3969V66.3959V66.3949L219.54 65.9599C219.17 63.4099 218.84 60.8599 218.54 58.3299C218.03 54.0299 217.47 49.3699 216.8 44.5599C216.109 44.2069 215.684 43.4859 215.71 42.7099C215.731 42.1849 215.957 41.6889 216.34 41.3299C215.223 33.3069 213.623 25.3599 211.55 17.5299C203.476 19.1779 195.288 21.0059 187.329 22.7839L186.72 22.9199C185.561 23.1779 184.399 23.4379 183.237 23.6969L183.235 23.6979C174.049 25.7499 164.764 27.8249 155.4 29.5999C155.034 29.9429 154.552 30.1349 154.05 30.1399C153.796 30.1389 153.544 30.0879 153.31 29.9899C144.24 31.7099 135.12 33.2599 126.01 34.2599C114.714 35.4929 103.501 37.3969 92.4301 39.9599C90.0901 40.5199 87.7601 41.2199 85.5001 41.8999C82.1031 42.9819 78.6481 43.8699 75.1501 44.5599C73.5301 44.8699 71.8411 45.1399 70.1511 45.4099H70.1501L69.9641 45.4389C66.8221 45.9399 63.5911 46.4549 60.6001 47.2199C47.7301 50.4799 34.5601 51.3899 23.2201 51.9799C22.5061 52.0169 21.8251 51.6709 21.4361 51.0709C21.0461 50.4709 21.0061 49.7079 21.3311 49.0709C21.6551 48.4329 22.2961 48.0169 23.0101 47.9799C28.9701 47.6699 35.4601 47.2599 42.1101 46.4699C42.6771 42.0669 43.6821 37.7319 45.1101 33.5299C45.4551 32.4799 46.5861 31.9089 47.6351 32.2549C48.6851 32.5999 49.2551 33.7299 48.9101 34.7799C47.6851 38.4129 46.7811 42.1479 46.2101 45.9399C48.2641 45.6529 50.2901 45.3199 52.2901 44.9399C52.2461 44.7429 52.2251 44.5409 52.2301 44.3399C52.5201 39.9799 54.6601 35.2199 56.3801 31.3999L56.4501 31.2199C56.6761 30.7149 57.1011 30.3269 57.6241 30.1469C58.1471 29.9669 58.7211 30.0109 59.2101 30.2699C59.4911 30.4139 59.8051 30.5969 60.1401 30.7929C60.2221 30.8419 60.3051 30.8899 60.3901 30.9399C61.5001 31.5999 63.1801 32.5899 64.0801 32.4499C64.7701 32.3299 66.2001 30.8899 67.0101 28.5599C67.6101 26.8499 67.5401 25.4899 67.1701 25.0799C66.6731 24.5239 66.5251 23.7379 66.7881 23.0409C67.0511 22.3429 67.6801 21.8489 68.4201 21.7599C71.1501 21.4299 74.3301 22.1599 77.1501 22.8099L77.2231 22.8259C78.4271 23.0999 79.5801 23.3629 80.5601 23.5199C83.3301 23.9599 86.1001 24.5499 88.6901 25.1599C91.2801 25.7699 93.9601 26.3499 96.6301 26.7699C99.0201 27.1799 101.3 27.6699 103.5 28.1799C106.955 29.0869 110.487 29.6699 114.05 29.9199C114.974 29.9579 115.751 30.6229 115.93 31.5299C119.07 31.0899 122.28 30.6699 125.54 30.2999C132.64 29.4799 139.76 28.3799 146.87 27.1199C144.114 26.4919 141.327 26.0079 138.52 25.6699C137.416 25.5209 136.641 24.5039 136.79 23.3999C136.939 22.2949 137.956 21.5209 139.06 21.6699C144.08 22.3599 150.16 23.1999 154.16 25.7299C164.697 23.6969 175.137 21.3729 185.421 19.0829H185.422L185.84 18.9899C194.57 17.0299 203.66 14.9999 212.57 13.2099C213.587 13.0069 214.589 13.6149 214.88 14.6099C215.36 16.2699 215.8 17.9399 216.22 19.6099L223.01 18.8299C223.983 18.7189 224.892 19.3279 225.16 20.2699C225.38 20.8899 229.22 34.5899 230.38 41.2699C232.436 41.6969 234.179 43.0519 235.1 44.9399C236.22 47.4499 235.48 51.1999 234.82 54.5199C234.63 55.4599 234.46 56.3599 234.38 56.9799C234.12 59.1899 233.85 61.4099 233.58 63.6199C233.52 64.0499 233.47 64.4799 233.42 64.9099ZM84.7371 37.9539C86.9261 37.2999 89.1771 36.6269 91.5001 36.0699C96.1401 34.9499 101.27 33.9099 106.73 32.9699C105.34 32.6899 103.98 32.3799 102.64 32.0699C100.5 31.5799 98.2901 31.0799 96.0401 30.7199C93.2401 30.2799 90.4101 29.6499 87.8401 29.0599C85.2701 28.4699 82.6101 27.8899 79.9601 27.4699C78.9641 27.3149 77.9241 27.0789 76.8331 26.8319H76.8301C76.6521 26.7909 76.4721 26.7499 76.2901 26.7099C74.7011 26.3109 73.0921 25.9969 71.4701 25.7699C71.5311 27.1689 71.3101 28.5669 70.8201 29.8799C69.8801 32.5799 67.7601 35.8999 64.7601 36.3899C62.8001 36.7199 60.8301 35.7899 59.2301 34.8799C57.8131 37.8009 56.8291 40.9139 56.3101 44.1199C57.4301 43.8799 58.5501 43.6299 59.6601 43.3499C62.8801 42.5299 66.2801 41.9899 69.5601 41.4699C69.8351 41.4249 70.1101 41.3809 70.3851 41.3359L70.3941 41.3349L70.4141 41.3309H70.4171C71.7901 41.1089 73.1571 40.8879 74.4901 40.6399C77.8231 39.9699 81.1151 39.1119 84.3501 38.0699L84.7371 37.9539ZM178.34 130.74C177.07 131.12 175.83 131.49 174.65 131.8C165.21 134.29 155.98 136.7 146.82 138.75C140.817 139.974 134.756 140.891 128.66 141.5L128.616 141.505C123.05 142.163 117.305 142.843 111.66 143.99C106.2 145.12 100.49 145.92 94.9701 146.69L94.2671 146.789H94.2661C90.2251 147.357 86.0621 147.943 81.9701 148.69C80.6301 148.93 79.2801 149.24 77.9701 149.55L77.7771 149.595C76.1261 149.979 74.5411 150.348 73.0301 150.55C72.7181 149.476 72.4911 148.379 72.3501 147.27V147.03C76.2801 146.18 80.2001 145.19 84.0101 144.22C91.7101 142.22 99.6701 140.22 107.61 139.47C115.482 138.537 123.29 137.124 130.99 135.24C138.81 133.49 146.9 131.68 154.99 130.98C161.053 130.359 167.027 129.061 172.8 127.11C175.57 128.43 179.42 129.06 182.61 129.52C181.259 129.867 179.842 130.289 178.477 130.696L178.33 130.74H178.34ZM215.11 129.96C215.693 126.579 216.492 123.239 217.5 119.96L217.58 119.676V119.675C218.222 117.398 218.838 115.209 219.27 113.03L218.761 113.175C210.949 115.4 202.886 117.696 194.88 119.84C190.214 121.086 185.617 122.69 181.16 124.246L181.12 124.26L179.38 124.87C181.013 125.183 182.654 125.42 184.037 125.62H184.038L184.38 125.67L185.61 125.84C188.138 126.158 190.682 126.332 193.23 126.36C195.51 126.43 197.89 126.51 200.23 126.78C202.691 127.132 205.121 127.671 207.5 128.39C209.974 129.182 212.525 129.708 215.11 129.96ZM221.77 22.9599C222.77 26.5699 225.14 35.2899 226.2 40.6399C224.681 40.5769 223.13 40.6259 221.654 40.6729C221.478 40.6789 221.304 40.6839 221.13 40.6899H220.29C219.45 35.0199 218.44 29.1799 217.15 23.4599L221.77 22.9599ZM226.2 90.7099C227.08 86.3199 227.57 81.4299 228.02 76.9099V76.9499C228.044 76.7159 228.067 76.4829 228.09 76.2509C228.245 74.6989 228.395 73.1929 228.56 71.7399L229.04 67.8199C228.837 67.4929 228.733 67.1139 228.74 66.7299C228.75 66.2109 228.962 65.7159 229.33 65.3499C229.38 64.9749 229.425 64.6019 229.47 64.2289C229.515 63.8569 229.56 63.4849 229.61 63.1099C229.884 60.8899 230.15 58.6799 230.41 56.4799C230.491 55.7859 230.653 54.9629 230.838 54.0249C230.859 53.9209 230.879 53.8159 230.9 53.7099C231.33 51.5499 232.05 47.8899 231.45 46.5499C230.47 44.3599 224.94 44.5599 221.28 44.6999H220.85C221.412 48.6569 221.869 52.5029 222.299 56.1199C222.367 56.6889 222.434 57.2529 222.5 57.8099C222.723 59.6869 222.962 61.5689 223.201 63.4529C223.284 64.1089 223.368 64.7639 223.45 65.4199C224.37 72.6999 225.32 80.2399 225.84 87.6399C225.91 88.6499 226.04 89.7099 226.2 90.7099Z" fill="#0000EE"/>
<ellipse cx="128" cy="82.5" rx="31" ry="30.5" fill="#BABAFF"/>
<path d="M137.069 66.5829C137.41 66.1345 138.053 66.0424 138.506 66.3774L142.928 69.6482C143.381 69.9831 143.472 70.6182 143.131 71.0666L133.386 83.8906C133.046 84.339 132.402 84.4311 131.949 84.0961L127.527 80.8253C127.075 80.4904 126.984 79.8553 127.325 79.4069L137.069 66.5829Z" fill="#0000EE"/>
<path d="M115.756 77.169C116.097 76.7206 116.74 76.6286 117.193 76.9635L121.615 80.2344C122.068 80.5693 122.159 81.2043 121.818 81.6527L118.49 86.032C118.149 86.4804 117.506 86.5725 117.053 86.2375L112.631 82.9667C112.179 82.6318 112.088 81.9967 112.429 81.5483L115.756 77.169Z" fill="#0000EE"/>
<path d="M124.232 83.3723C124.573 82.9238 125.216 82.8318 125.669 83.1668L130.091 86.4376C130.544 86.7725 130.635 87.4076 130.294 87.856L126.966 92.2353C126.626 92.6837 125.982 92.7757 125.53 92.4408L121.108 89.1699C120.655 88.835 120.564 88.2 120.905 87.7516L124.232 83.3723Z" fill="#0000EE"/>
</svg>
