<svg width="234" height="279" viewBox="0 0 234 279" fill="none" xmlns="http://www.w3.org/2000/svg">
<path fill-rule="evenodd" clip-rule="evenodd" d="M187.871 0.275196C185.482 1.35111 187.351 1.798 194.293 1.81084C203.5 1.82769 206.768 3.30878 213.904 10.6982C217.528 14.4506 219.437 15.8379 220.975 15.8379C222.176 15.8379 222.868 15.4929 222.586 15.0355C222.313 14.5943 221.53 14.2332 220.847 14.2332C220.163 14.2332 217.303 11.9225 214.492 9.09915C207.717 2.29304 203.607 0.353825 195.328 0.0561625C191.779 -0.0722093 188.423 0.0272779 187.871 0.275196ZM172.357 1.67044C170.777 2.2465 167.733 4.05334 165.593 5.68767C163.453 7.3212 160.862 8.86808 159.837 9.12563C158.811 9.38237 157.972 9.95443 157.972 10.3957C157.972 11.799 162.169 10.2232 166.085 7.35008C171.194 3.60082 175.281 1.99457 178.122 2.61798C179.566 2.9349 180.446 2.80011 180.446 2.26175C180.446 1.78597 179.995 1.39123 179.443 1.38481C178.892 1.37919 177.717 1.20509 176.835 0.999694C175.952 0.793497 173.937 1.09517 172.357 1.67044ZM180.538 8.28158C178.742 10.5634 177.66 13.321 178.307 13.9668C178.536 14.1955 179.267 13.3298 179.933 12.0429C180.599 10.7559 181.709 9.23474 182.4 8.66108C183.091 8.08742 183.657 7.30114 183.657 6.91442C183.657 5.56572 182.158 6.22362 180.538 8.28158ZM158.545 15.0436C153.994 18.6219 150.748 29.8681 150.748 42.0562C150.748 45.6209 150.353 46.9656 148.742 48.8792C145.226 53.0552 146.712 62.9046 151.163 64.932C152.706 65.6341 152.989 66.5608 153.407 72.2781C153.669 75.8765 154.487 80.5661 155.224 82.6995C156.469 86.3019 156.47 86.9558 155.254 91.8829C154.534 94.801 153.497 97.4935 152.948 97.8682C149.52 100.209 137.012 95.5832 130.317 89.4992L126.34 85.8855L125.319 72.7836C124.757 65.5779 123.939 59.4602 123.5 59.189C123.061 58.9178 120.072 58.9596 116.859 59.2813C108.073 60.1614 101.148 60.078 100.534 59.0847C99.4545 57.3397 92.5966 53.5471 90.521 53.5471C88.0279 53.5471 86.49 56.157 87.1009 59.3511C87.5544 61.7219 88.5312 61.5174 68.476 63.2464C62.7371 63.7406 57.8802 64.299 57.6827 64.4868C57.4861 64.6737 57.9219 72.4739 58.6523 81.8202C59.3828 91.1664 59.8892 98.9032 59.7785 99.014C59.6685 99.1239 56.7428 98.3143 53.2778 97.2143C47.1134 95.2583 46.8886 95.2438 42.8778 96.558C36.2013 98.7452 25.0323 104.662 23.2119 106.975C22.2816 108.156 21.5207 110.08 21.5207 111.249C21.5207 112.759 20.8248 113.786 19.1184 114.794C15.6059 116.868 14.8474 118.819 15.5185 124.048C16.1132 128.691 16.6157 135.605 16.9279 143.47C17.1109 148.072 17.0403 147.938 23.6116 156.029C25.2908 158.098 25.6175 159.157 25.2242 161.256C24.9272 162.836 24.0467 164.204 23.0209 164.679C18.2202 166.903 1.10035 207.998 0.0914166 219.723C-0.750569 229.5 4.26202 236.743 13.5447 239.16C18.8623 240.545 25.0588 239.792 29.418 237.233C39.5556 231.281 66.3899 203.985 80.1041 185.675C82.5273 182.44 83.7803 181.332 84.1848 182.064C86.8207 186.84 91.3421 242.824 91.3493 270.776C91.3509 275.723 91.672 279 92.1544 279C94.2894 279 90.9303 213.654 87.6796 191.948C86.5342 184.3 81.3731 165.519 79.9733 163.907C78.7605 162.509 79.2798 165.71 81.2953 172.055L83.2794 178.299L81.4084 181.112C71.0108 196.744 40.4883 228.543 29.0946 235.613C25.1062 238.088 23.9664 238.41 19.2396 238.391C10.8085 238.359 4.5614 234.23 2.22166 227.143C0.362707 221.513 2.59731 211.227 9.43272 193.954C12.4716 186.275 20.9781 169.034 21.6154 169.263C21.9517 169.384 23.0698 170.738 24.1004 172.272C28.1009 178.227 36.4926 181.582 45.7408 180.92C48.754 180.705 51.2182 180.751 51.2174 181.023C51.2141 181.88 44.3514 199.625 40.7876 207.99C38.9086 212.401 36.1347 217.942 34.6233 220.304C33.1111 222.667 32.0034 224.988 32.1615 225.463C32.8887 227.642 39.6984 214.654 45.496 200.029C53.3797 180.143 54.2939 177.211 52.8829 176.339C51.1588 175.273 52.6268 169.4 56.8022 160.657C58.91 156.244 61.3469 151.027 62.2177 149.063L63.8006 145.492L64.3552 151.452C64.6602 154.731 65.1699 157.669 65.4886 157.981C65.8072 158.293 70.0412 158.209 74.8973 157.793C79.7534 157.378 94.3047 156.184 107.233 155.141C120.162 154.098 130.942 153.042 131.19 152.795C131.437 152.548 130.879 142.842 129.951 131.228C127.833 104.747 127.833 104.896 129.879 104.896C130.762 104.896 131.484 105.191 131.484 105.551C131.484 105.912 134.013 110.054 137.103 114.756C141.163 120.934 142.723 124.035 142.728 125.935C142.745 133.289 145.593 145.012 147.363 145.012C148.01 145.012 149.973 143.384 151.726 141.393L154.912 137.775L157.359 139.833C160.383 142.376 166.361 145.435 169.732 146.163L172.26 146.709L172.824 157.294C173.401 168.119 172.756 249.201 171.942 268.369C171.675 274.639 171.793 279 172.229 279C173.558 279 174.427 245.028 174.37 195.358L174.314 146.617H178.441C180.711 146.617 184.281 146.033 186.374 145.321C190.057 144.066 190.237 144.079 191.986 145.722C195.183 148.724 196.215 147.983 196.745 142.303C197.094 138.567 198.102 135.444 200.484 130.723L203.745 124.259L211.961 128.819C222.787 134.826 227.794 139.829 230.331 147.171C232.031 152.096 232.214 153.977 232.178 166.274C232.156 173.775 231.483 188.217 230.683 198.366C229.756 210.118 229.146 227.2 229.002 245.403C228.879 261.123 228.53 275.114 228.227 276.493C227.912 277.926 228.001 279 228.437 279C229.833 279 230.193 273.162 230.219 250.116C230.244 227.61 230.516 221.436 233.101 184.727C234.586 163.64 234.282 154.868 231.804 147.333C229.199 139.413 225.472 135.086 216.967 130.109C204.25 122.666 201.787 120.888 198.272 116.617C192.485 109.586 192.211 108.716 193.609 101.862C194.712 96.4553 195.204 95.5415 199.469 90.9739C202.03 88.2315 204.844 84.4983 205.722 82.6786C207.002 80.0254 207.84 79.284 209.944 78.943C211.387 78.7087 213.62 77.7684 214.906 76.8538C217.628 74.9162 220.189 68.9477 219.385 66.4147C218.996 65.192 219.923 62.5203 222.541 57.3108C226.248 49.9342 228.566 41.5668 228.592 35.4627C228.61 31.297 226.459 22.997 224.975 21.5023C223.023 19.5342 222.951 20.9751 224.816 24.7076C226.311 27.6986 226.584 29.5038 226.504 35.896C226.4 44.3284 224.648 50.7975 220.498 58.0818C218.157 62.1921 218.124 62.2138 214.823 61.7709C212.434 61.4508 211.664 61.5848 212.076 62.2507C212.391 62.7594 213.293 63.175 214.081 63.175C214.869 63.175 216.155 63.8826 216.938 64.7475C219.016 67.0422 217.972 71.3434 214.494 74.8207C211.332 77.981 208.095 78.6758 208.941 76.0121C210.045 72.5349 207.947 74.6795 205.606 79.422C201.379 87.9828 197.329 92.3635 190.541 95.7172C182.188 99.8436 174.927 100.431 169.752 97.3989C165.613 94.9743 159.573 88.5404 157.668 84.5272C155.793 80.5774 154.761 74.3858 154.761 67.0775C154.761 63.406 154.426 60.768 153.959 60.768C153.517 60.768 153.156 61.4901 153.156 62.3726C153.156 64.7603 151.735 64.3175 149.937 61.3697C146.174 55.1999 149.187 47.378 154.915 48.4483C156.737 48.7893 157.319 48.6842 156.768 48.1145C156.327 47.658 155.243 47.1558 154.36 46.9977C153.004 46.7562 152.717 45.9788 152.511 41.9888C152.003 32.1676 154.411 22.2877 158.466 17.5524C161.698 13.7775 161.738 12.5331 158.545 15.0436ZM184.744 21.8168C185.912 22.8991 186.88 24.6137 186.893 25.6278C187.076 38.6142 187.32 40.6658 188.948 42.8593C191.534 46.3438 195.581 48.7925 197.826 48.2301C199.389 47.8377 200.339 48.4186 202.918 51.3479C206.243 55.1236 210.862 57.8475 213.183 57.4006C214.034 57.237 212.865 56.3119 210.093 54.9568C205.391 52.6573 201.643 48.1627 200.764 43.7716C200.515 42.5288 199.951 41.5122 199.51 41.5122C199.046 41.5122 198.91 42.5288 199.188 43.9192C199.638 46.1673 199.51 46.3262 197.254 46.3262C194.009 46.3262 190.9 44.1607 189.568 40.9731C188.932 39.4519 188.473 35.4683 188.473 31.4687C188.473 23.6557 187.113 19.8495 184.322 19.8495C182.703 19.8495 182.723 19.945 184.744 21.8168ZM179.551 25.1071C178.4 25.7097 177.012 27.3913 176.468 28.8435C173.833 35.8743 172.685 37.8159 169.664 40.3489C167.473 42.1862 166.846 43.0904 167.757 43.1008C168.504 43.1096 169.363 42.7157 169.665 42.2263C170.206 41.3518 173.8 41.6125 176.634 42.7334C177.411 43.0407 178.038 42.9267 178.038 42.479C178.038 42.0337 176.955 41.2916 175.631 40.8302C172.797 39.8426 172.747 39.6179 174.745 36.8146C175.582 35.6392 176.684 33.1303 177.193 31.2385C177.843 28.8291 178.849 27.3568 180.554 26.3202C183.44 24.5655 182.577 23.5217 179.551 25.1071ZM80.4982 38.7041C81.1275 43.1201 82.0465 45.3377 82.7657 44.1743C83.3485 43.2332 81.7736 36.5787 80.7125 35.4948C80.1996 34.9709 80.125 36.0845 80.4982 38.7041ZM163.148 41.4119C161.36 43.1 159.374 44.6662 158.734 44.8924C158.094 45.1187 157.811 45.5632 158.104 45.8801C159.17 47.0314 165.256 42.7614 166.903 39.707C168.124 37.4428 166.639 38.1176 163.148 41.4119ZM54.1647 46.1047C53.5699 47.0675 60.6172 54.0477 61.3974 53.2687C61.7161 52.9493 60.3251 51.0366 58.3056 49.018C56.2861 46.9993 54.4223 45.6883 54.1647 46.1047ZM168.976 52.4431C167.877 53.5415 168.397 57.383 169.713 57.8876C171.607 58.6146 173.341 56.8181 173.063 54.4184C172.825 52.3797 170.273 51.1465 168.976 52.4431ZM151.577 54.083C151.535 55.6074 152.47 57.5587 153.242 57.5587C154.294 57.5587 154.119 56.4715 152.781 54.7032C152.132 53.8471 151.59 53.5679 151.577 54.083ZM183.177 56.3624C180.372 60.6428 179.701 64.0864 181.027 67.3992C182.153 70.2137 182.137 70.5764 180.822 72.0294C179.135 73.8924 180.561 74.1788 182.396 72.3447C184.01 70.7304 183.985 69.4932 182.281 66.5238C180.931 64.1738 180.954 64.0294 183.427 59.238C185.914 54.4168 185.743 52.4471 183.177 56.3624ZM92.7965 60.9686C93.0301 65.4415 92.9747 65.5819 90.9905 65.5819C89.0216 65.5819 88.9438 65.3974 88.9438 60.7118C88.9438 56.1209 89.0473 55.857 90.7497 56.0985C92.3494 56.3263 92.583 56.8815 92.7965 60.9686ZM96.9703 58.7622L98.8557 60.768H96.7086C95.5279 60.768 94.5623 60.3853 94.5623 59.9183C94.5623 59.4514 95.0142 59.3238 95.5657 59.6351C96.3683 60.0876 96.3683 59.9849 95.5657 59.1208C94.6394 58.1227 94.2108 56.7564 94.824 56.7564C94.9677 56.7564 95.9333 57.659 96.9703 58.7622ZM194.579 59.6303C193.044 63.6275 195.789 66.2326 198.287 63.1493C199.345 61.8431 199.487 61.048 198.867 59.891C197.875 58.0369 195.251 57.8772 194.579 59.6303ZM98.5756 65.5819C98.5756 66.0232 97.5819 66.3586 96.3683 66.3281C94.4122 66.2775 94.344 66.1933 95.7663 65.5819C97.9584 64.64 98.5756 64.64 98.5756 65.5819ZM86.5358 67.1866C84.9794 68.1919 84.1278 68.1919 84.1278 67.1866C84.1278 66.7453 84.9401 66.3899 85.9338 66.3963C87.3938 66.4067 87.5094 66.5576 86.5358 67.1866ZM211.734 70.014C210.183 71.8826 211.289 72.234 212.949 70.4007C213.751 69.5157 214.034 68.7912 213.578 68.7912C213.123 68.7912 212.293 69.3416 211.734 70.014ZM42.0286 70.3132C43.1723 71.3932 49.6136 72.2837 49.6136 71.3627C49.6136 70.424 46.8766 69.6192 43.6339 69.6048C42.2051 69.5976 41.5686 69.8792 42.0286 70.3132ZM125.994 99.6807C127.168 114.243 128.239 127.78 128.375 129.765L128.621 133.372L124.635 133.934C117.294 134.969 65.6483 138.842 65.1972 138.392C64.9524 138.146 64.5454 135.22 64.2934 131.888L63.8351 125.831L69.5749 126.311C74.4157 126.717 75.5651 126.567 76.912 125.348C78.9314 123.521 78.9595 120.59 76.9762 118.607C75.4672 117.099 75.4736 117.046 77.3775 115.259C78.441 114.259 79.3119 112.99 79.3119 112.439C79.3119 110.163 74.7183 106.265 68.4776 103.246L61.8317 100.03L61.3701 95.844C61.1157 93.5413 60.671 88.4987 60.3829 84.6371L59.8579 77.6168L62.1608 77.555C63.4265 77.5205 76.021 76.4767 90.1477 75.2355C104.274 73.9943 117.639 73.0291 119.846 73.0909L123.859 73.204L125.994 99.6807ZM169.209 78.2947C169.209 80.0992 175.128 83.5171 179.644 84.321C182.893 84.8995 187.019 83.984 187.487 82.5816C187.732 81.845 187.267 81.8234 185.532 82.4885C184.28 82.9683 181.868 83.1416 180.172 82.8744C176.592 82.3096 170.815 79.5488 170.815 78.4031C170.815 77.9706 170.453 77.6168 170.012 77.6168C169.57 77.6168 169.209 77.9217 169.209 78.2947ZM86.9371 82.1972C74.1348 83.2828 63.51 84.321 63.3254 84.5047C63.1416 84.6877 63.1737 85.0198 63.396 85.2421C63.9675 85.8133 115.316 81.7351 118.241 80.8862C122.526 79.6426 111.729 80.0944 86.9371 82.1972ZM99.4256 86.1639C92.6087 86.7793 86.9532 87.365 86.8568 87.4645C86.5502 87.7814 89.4759 122.544 89.8395 122.908C90.3364 123.405 122.947 120.813 123.59 120.226C123.966 119.882 121.657 87.2431 121.101 85.0383C120.988 84.5938 111.133 85.1057 99.4256 86.1639ZM121.03 100.121C121.586 107.645 121.897 113.944 121.72 114.121C120.995 114.846 114.097 112.577 112.421 111.062C110.233 109.084 110.2 108.465 112.096 104.884C113.763 101.735 114.2 96.3551 113.036 93.2958C112.157 90.9859 107.846 88.0542 105.321 88.0502C103.139 88.0462 99.2234 90.0135 97.3957 92.0321C95.2928 94.3549 96.2977 102.517 99.1471 106.251C100.902 108.551 101.082 109.258 100.328 110.912C99.534 112.653 91.6567 117.504 90.8814 116.728C90.3669 116.213 88.1564 89.3692 88.5922 88.9336C89.0634 88.4626 108.923 86.7031 115.517 86.5482L120.018 86.4423L121.03 100.121ZM78.1079 88.5155C77.225 88.6527 73.7029 88.9953 70.282 89.277C66.8611 89.5586 64.0614 90.1523 64.0614 90.5976C64.0614 91.0902 65.5528 91.2338 67.8741 90.9634C69.9714 90.7195 74.4879 90.2935 77.9121 90.0167C81.3442 89.7399 83.9336 89.1847 83.6839 88.7803C83.2465 88.0735 81.4863 87.99 78.1079 88.5155ZM108.483 90.5422C110.559 91.4882 112.221 94.3188 112.221 96.9103C112.221 98.908 109.412 99.0236 108.262 97.0731C107.54 95.8496 107.333 95.8239 106.646 96.8726C106.009 97.8434 105.681 97.5722 104.947 95.4685C103.835 92.2841 102.154 92.0907 101.407 95.0625C100.394 99.0998 97.7633 100.85 97.7842 97.4743C97.8059 93.8406 98.8461 91.8668 101.301 90.799C104.385 89.4567 105.974 89.3997 108.483 90.5422ZM130.682 92.8609C131.525 93.7034 141.045 98.742 142.313 99.0163C142.759 99.1134 144.207 99.5122 145.531 99.9037L147.939 100.615L144.972 101.179C142.515 101.646 141.374 101.35 138.334 99.4584C136.313 98.202 134.94 96.8677 135.28 96.4939C135.621 96.1208 135.339 96.0141 134.653 96.2572C133.941 96.5107 132.615 95.8777 131.559 94.7809C130.542 93.725 129.475 92.8609 129.186 92.8609C128.897 92.8609 128.161 92.049 127.551 91.0557L126.441 89.2505L128.361 90.8551C129.417 91.7377 130.461 92.6403 130.682 92.8609ZM76.9039 94.1896C75.3588 94.338 71.8376 94.6702 69.078 94.9277C66.3193 95.1853 64.0614 95.7621 64.0614 96.209C64.0614 96.7097 65.5319 96.8469 67.8741 96.5669C69.9714 96.3157 74.4863 95.8785 77.9072 95.5953C81.3282 95.3112 84.1278 94.7608 84.1278 94.3717C84.1278 93.6801 82.6108 93.6416 76.9039 94.1896ZM107.328 99.2819C111.253 100.369 112.897 101.508 111.682 102.296C111.165 102.632 110.489 103.916 110.179 105.15C109.869 106.385 108.742 107.967 107.675 108.666C105.171 110.306 102.111 109.065 100.917 105.925C100.457 104.715 99.6632 103.467 99.1535 103.152C98.5226 102.762 98.8341 102.052 100.129 100.929C101.175 100.022 102.345 99.2795 102.727 99.2795C103.109 99.2795 103.227 98.2862 102.989 97.0731C102.574 94.9574 102.595 94.9414 103.498 96.6744C104.028 97.6901 105.706 98.8326 107.328 99.2819ZM158.855 98.8479C161.813 102.214 165.486 104.529 169.077 105.289C172.651 106.046 181.148 103.289 187.749 99.2314C190.53 97.5216 192.888 96.205 192.99 96.3061C193.091 96.4072 192.632 99.0123 191.971 102.096C191.31 105.181 190.971 109.261 191.218 111.165C191.609 114.18 191.291 115.214 188.751 119.188C187.146 121.697 183.338 126.326 180.287 129.473C177.236 132.62 174.452 136.231 174.101 137.496L173.463 139.797L172.159 136.74C171.443 135.059 168.48 131.471 165.576 128.767C158.774 122.433 155.111 117.394 153.135 111.655C151.146 105.874 151.132 103.116 153.084 101.35C153.928 100.588 154.837 99.0878 155.106 98.0167C155.375 96.9464 155.779 96.0702 156.006 96.0702C156.231 96.0702 157.514 97.3202 158.855 98.8479ZM54.1374 98.9674C63.7452 102.156 75.0674 107.808 76.6342 110.199C79.6458 114.794 74.6107 116.541 66.2326 113.808C63.4932 112.914 56.9299 111.044 51.6468 109.652C40.4923 106.712 37.6902 106.801 28.9453 110.369C23.2071 112.71 23.126 112.72 23.1517 111.026C23.1902 108.404 24.6976 106.93 30.728 103.616C36.0054 100.716 44.9735 97.0033 46.9135 96.9143C47.4152 96.891 50.6659 97.8153 54.1374 98.9674ZM140.247 103.033C140.431 103.175 139.462 103.291 138.094 103.291C136.222 103.291 135.163 102.668 133.812 100.771L132.017 98.2509L135.965 100.513C138.136 101.756 140.063 102.891 140.247 103.033ZM104.206 101.486C104.221 103.09 105.525 105.44 106.086 104.873C106.292 104.665 106.27 103.501 106.036 102.288C105.57 99.8596 104.187 99.253 104.206 101.486ZM129 101.887C129.921 103.089 129.888 103.291 128.773 103.291C127.973 103.291 127.471 102.621 127.471 101.552C127.471 100.597 127.573 99.9647 127.698 100.148C127.824 100.333 128.41 101.114 129 101.887ZM136.389 107.503C139.082 111.143 142.783 115.891 144.613 118.052C147.458 121.413 149.18 125.812 147.619 125.731C146.436 125.67 141.932 118.632 142.36 117.516C142.62 116.842 142.45 116.055 141.983 115.766C141.454 115.44 141.311 115.787 141.602 116.688C141.925 117.692 141.559 117.52 140.403 116.128C139.486 115.025 138.898 113.676 139.095 113.129C139.292 112.583 139.015 112.222 138.479 112.327C137.943 112.432 137.553 111.9 137.61 111.145C137.669 110.39 137.42 109.849 137.058 109.942C136.695 110.035 135.139 108.034 133.599 105.498C132.059 102.961 130.955 100.884 131.145 100.884C131.335 100.884 133.695 103.863 136.389 107.503ZM149.946 104.119C149.946 106.946 152.64 115.339 154.536 118.42C155.254 119.586 157.98 122.751 160.593 125.451L165.344 130.362L162.715 131.278C159.581 132.37 158.782 131.739 149.49 120.844C143.814 114.19 143.57 113.733 143.064 108.801L142.539 103.675L145.239 102.793C149.554 101.385 149.946 101.496 149.946 104.119ZM141.116 106.435C141.116 107.281 141.358 108.635 141.654 109.443C142.148 110.794 142.043 110.783 140.376 109.317C139.377 108.44 138.22 107.086 137.803 106.309C137.173 105.132 137.387 104.896 139.082 104.896C140.552 104.896 141.116 105.323 141.116 106.435ZM103.392 106.5C103.392 106.942 104.273 107.303 105.351 107.303C106.429 107.303 107.533 106.942 107.806 106.5C108.096 106.033 107.28 105.698 105.847 105.698C104.497 105.698 103.392 106.059 103.392 106.5ZM56.4418 112.544C63.502 114.545 70.9041 116.981 72.8906 117.96C75.9736 119.478 76.5026 120.092 76.5026 122.146C76.5026 124.375 76.2658 124.572 73.292 124.816C71.5261 124.96 63.453 124.265 55.3518 123.27C42.0735 121.639 39.8991 121.561 33.2788 122.481C29.2398 123.043 25.5741 123.874 25.1327 124.329C24.5828 124.896 25.4674 124.99 27.9419 124.627C36.4348 123.384 44.4654 123.259 48.0083 124.314C50.8377 125.158 51.9165 125.995 52.988 128.181C55.7684 133.852 56.1408 143.407 53.5812 143.407C53.0859 143.407 51.1018 141.783 49.1706 139.797C46.2184 136.761 45.1766 136.189 42.6201 136.2C39.2642 136.215 25.782 138.88 24.9737 139.688C23.8436 140.818 25.4593 140.736 32.3566 139.311C43.3602 137.037 44.878 137.198 48.3166 141.003C51.5336 144.562 51.6195 144.86 50.2871 147.782C49.645 149.191 48.7227 149.826 47.3173 149.826C45.732 149.826 45.4936 149.612 46.2425 148.863C47.4112 147.695 47.5107 145.814 46.403 145.814C45.9616 145.814 45.6004 146.374 45.6004 147.059C45.6004 148.736 41.6216 150.27 34.3969 151.38C31.1044 151.885 28.2454 152.465 28.0423 152.667C27.1008 153.609 28.8209 153.7 33.5902 152.96C36.4437 152.518 41.1256 151.947 43.9951 151.692C49.4491 151.207 52.0216 149.803 52.0216 147.315C52.0216 146.505 53.0924 145.302 54.4296 144.611C56.7139 143.43 56.8375 143.11 56.8375 138.372C56.8375 133.662 56.9916 133.256 59.5441 131.219L62.2507 129.061L62.7547 132.736C63.6826 139.504 63.3134 143.351 61.3621 147.245C60.3187 149.326 59.0424 152.333 58.5271 153.927C58.011 155.522 56.3511 158.88 54.8381 161.392C52.9776 164.48 51.6452 168.182 50.7221 172.828L49.3576 179.696L42.462 179.349C35.1137 178.979 31.6992 177.745 27.6723 174.005C24.0996 170.686 23.7545 169.55 25.2113 165.909C26.5325 162.609 27.5206 161.858 28.1667 163.666C28.3633 164.218 28.7791 164.434 29.0897 164.147C29.9205 163.38 25.8952 155.851 22.8122 152.405C19.1978 148.363 18.1568 146.175 18.4136 143.154C18.5324 141.749 18.3358 138.163 17.9754 135.185C17.4408 130.764 17.5588 129.408 18.6183 127.792C20.1329 125.48 20.2766 124.636 19.0228 125.41C17.1928 126.541 15.7721 120.394 17.3188 118.039C19.0558 115.395 35.3665 108.951 40.3887 108.924C42.157 108.915 49.3809 110.544 56.4418 112.544ZM107.689 112.544C105.795 113.977 105.621 113.975 103.746 112.476C102.214 111.253 102.216 111.239 103.835 111.678C104.741 111.923 106.186 111.606 107.045 110.973C107.959 110.299 108.727 110.153 108.893 110.619C109.049 111.058 108.508 111.923 107.689 112.544ZM111.09 114.222C110.678 115.295 110.351 115.383 109.593 114.625C108.834 113.866 108.879 113.497 109.796 112.929C111.291 112.006 111.76 112.475 111.09 114.222ZM102.934 113.631C103.176 114.021 102.836 114.788 102.179 115.333C101.184 116.159 100.984 116.039 100.984 114.622C100.984 112.901 102.124 112.32 102.934 113.631ZM117.373 114.776C120.886 115.686 123.648 117.816 122.627 118.828C122.341 119.111 93.8825 121.745 91.1133 121.745C90.8027 121.745 90.5491 121.063 90.5491 120.231C90.5491 119.306 91.5628 118.25 93.1577 117.512C97.8492 115.344 99.347 115.113 99.8695 116.474C100.54 118.22 101.667 118.047 103.437 115.928L104.943 114.123L104.97 115.928C104.985 116.921 105.358 117.733 105.8 117.733C106.241 117.733 106.602 117.011 106.602 116.128C106.602 114.006 107.813 114.094 109.388 116.329C110.469 117.861 110.777 117.952 111.429 116.931C111.851 116.269 112.201 115.276 112.209 114.724C112.223 113.496 112.445 113.498 117.373 114.776ZM198.186 125.069C197.235 127.874 196.263 132.877 196.025 136.186C195.788 139.496 195.42 143.057 195.206 144.099C194.826 145.958 194.787 145.965 193.171 144.504C192.265 143.684 190.058 140.786 188.268 138.064C186.477 135.342 184.197 132.679 183.201 132.146L181.39 131.177L184.807 126.983C186.687 124.676 189.455 120.769 190.958 118.3L193.69 113.811L196.803 116.89L199.916 119.967L198.186 125.069ZM145.13 121.246C145.13 121.412 145.762 122.044 146.534 122.65C147.807 123.647 147.835 123.619 146.838 122.346C145.789 121.01 145.13 120.585 145.13 121.246ZM202.118 122.861C202.118 123.033 201.404 124.748 200.531 126.672C199.53 128.875 198.936 129.567 198.925 128.543C198.916 127.647 199.436 126.161 200.083 125.238C200.73 124.315 201.031 123.332 200.752 123.053C200.474 122.775 200.667 122.547 201.181 122.547C201.697 122.547 202.118 122.688 202.118 122.861ZM152.488 128.549C152.34 128.998 152.494 129.092 152.829 128.758C153.656 127.93 157.249 131.397 156.62 132.415C156.344 132.861 156.495 132.992 156.954 132.709C157.995 132.066 159.783 134.087 158.968 134.985C158.642 135.346 158.794 135.401 159.309 135.106C159.822 134.812 160.364 134.845 160.513 135.179C160.923 136.106 165.702 139.315 168.195 140.337C171.031 141.5 172.222 141.776 175.43 142.012C176.864 142.117 178.038 142.519 178.038 142.903C178.038 143.289 178.49 143.248 179.042 142.814C180.505 141.662 187.511 140.895 188.085 141.824C189.256 143.717 178.676 145.719 176.558 144.005C175.545 143.186 175.444 143.208 175.999 144.129C176.561 145.061 175.944 145.154 172.352 144.677C166.8 143.942 161.024 140.839 155.965 135.877C153.758 133.711 152.399 132.192 152.947 132.5C153.603 132.87 153.785 132.655 153.482 131.866C153.21 131.157 152.48 130.865 151.685 131.149C150.949 131.413 150.588 131.36 150.882 131.032C151.176 130.705 150.727 129.746 149.883 128.903C148.547 127.568 148.435 126.799 149.084 123.442C149.116 123.271 149.955 124.168 150.949 125.432C151.943 126.697 152.634 128.099 152.488 128.549ZM62.355 126.201C62.8775 126.736 57.7774 131.372 56.6674 131.372C56.319 131.372 56.0349 129.881 56.0349 128.058V124.744L58.9437 125.215C60.5434 125.475 62.0789 125.919 62.355 126.201ZM92.9675 127.922C80.3915 129 69.9465 130.037 69.7571 130.226C68.639 131.344 72.6314 131.209 94.6458 129.385C108.065 128.273 119.856 127.363 120.849 127.362C121.843 127.362 122.655 127 122.655 126.559C122.655 125.492 119.815 125.622 92.9675 127.922ZM149.319 131.422L153.744 136.687L150.706 140.247C149.036 142.205 147.525 143.626 147.347 143.407C146.026 141.767 143.235 124.476 144.499 125.756C144.716 125.977 146.886 128.527 149.319 131.422ZM167.053 133.055C168.117 133.54 169.585 135.191 170.317 136.725C171.645 139.507 171.644 139.512 169.827 138.943C168.825 138.63 166.43 137.295 164.507 135.978C161.885 134.182 161.281 133.408 162.099 132.89C163.561 131.965 164.745 132.004 167.053 133.055ZM184.79 135.446C185.933 136.803 186.868 138.205 186.868 138.561C186.868 139.535 183.762 140.175 178.988 140.187C174.935 140.197 174.747 140.107 175.259 138.393C177.043 132.415 181.166 131.141 184.79 135.446ZM220.275 163.542C218.172 168.634 217.479 175.055 216.991 193.954C216.722 204.324 216.175 218.946 215.775 226.448C214.341 253.269 213.893 279 214.859 279C215.489 279 215.771 275.291 215.791 266.765C215.806 260.035 216.152 247.85 216.56 239.686C216.968 231.522 217.698 213.109 218.182 198.768C218.923 176.789 219.313 171.828 220.672 167.191C222.392 161.314 222.144 159.02 220.275 163.542ZM33.5605 168.917C33.5605 170.122 38.1284 171.489 42.1554 171.489C46.9689 171.489 45.8372 170.18 40.5982 169.688C38.2729 169.47 35.7381 169.025 34.9652 168.7C34.1641 168.362 33.5605 168.456 33.5605 168.917Z" fill="black"/>
<path d="M64 98L62.5 81.5L121.5 77L125 112.5V129L68 135V129L80.5 125.5L86.5 115.5L80.5 108L73.5 101L64 98Z" fill="white"/>
<rect x="63.3569" y="138.915" width="67" height="20.3003" transform="rotate(-4.72222 63.3569 138.915)" fill="#0000EE"/>
<rect x="56.7886" y="64.1396" width="67" height="15.058" transform="rotate(-4.72222 56.7886 64.1396)" fill="#0000EE"/>
<path d="M108.757 88.478C109.226 87.9444 110.045 87.887 110.584 88.3498L115.855 92.8701C116.394 93.333 116.451 94.1408 115.981 94.6744L102.546 109.935C102.076 110.469 101.258 110.526 100.718 110.063L95.4477 105.543C94.9081 105.08 94.8514 104.273 95.3212 103.739L108.757 88.478Z" fill="#0000EE"/>
<path d="M80.9591 99.8697C81.4289 99.336 82.2472 99.2787 82.7869 99.7415L88.0573 104.262C88.597 104.725 88.6536 105.532 88.1838 106.066L83.5957 111.278C83.1259 111.811 82.3076 111.869 81.768 111.406L76.4976 106.885C75.9579 106.423 75.9013 105.615 76.3711 105.081L80.9591 99.8697Z" fill="#0000EE"/>
<path d="M91.0675 108.451C91.5373 107.917 92.3556 107.86 92.8952 108.322L98.1656 112.843C98.7053 113.306 98.7619 114.113 98.2921 114.647L93.7041 119.858C93.2343 120.392 92.416 120.449 91.8763 119.987L86.6059 115.466C86.0662 115.004 86.0096 114.196 86.4794 113.662L91.0675 108.451Z" fill="#0000EE"/>
</svg>
